<svg id="layer_1" data-name="layer 1" xmlns="http://www.w3.org/2000/svg" viewBox="0 0 300 79.08"><defs><style>.cls-1{fill:#fff;}</style></defs><title>logo</title><path class="cls-1" d="M94.72,52.87a1.69,1.69,0,0,0-1.31.25c-.94.72-2.18,5.25-4.13,3.5a2.32,2.32,0,0,1-.84-1.88c0-1.3.16-2.52.22-3.74-.06-2.14-.31-4.19-.19-6.42a22,22,0,0,1,.5-2.22c0-1.06.1-2.14.1-3.12,0-3-.21-5.78-.21-8.52-.13-1.84-.35-3.3.55-4.82a1.4,1.4,0,0,1,.94.69c.44.28.93.69,1,1,.86.57,1.25,1.4,2.33.82a3,3,0,0,0,1.58-2.8c-.13-1.48-1.59-2.14-2.35-3.42a12.33,12.33,0,0,1-1.76-3,8.79,8.79,0,0,0-2.2-3.5,2.91,2.91,0,0,0-2.61-.44c-.83,0-3.11,1.1-3.1,1.78-.56,1.86.84,3.58,1,5.38.28,2.17-.53,4.59-.66,6.64v2.73a4.32,4.32,0,0,0-.37,1.63,13.29,13.29,0,0,1-.16,1.87c-.53.59-1.42.59-2,1a3.41,3.41,0,0,0-2.17.58,12.69,12.69,0,0,0-3.27.82c-1.37,0-4,.46-5-.39-.84-.66-.63-1.78-.84-2.79,0-1.24-.49-2.62-.49-3.9A54.14,54.14,0,0,1,70,23.11V21a27.4,27.4,0,0,0,.75-2.73c0-1,.06-1.88.12-3,.18-1.42,1.12-3.29-.4-4.36a1.64,1.64,0,0,0-1.45-.2A28.58,28.58,0,0,1,65,10.38a13.51,13.51,0,0,0-1.68,3c-.18.53-.28,1.15-.44,1.7s-.81.82-1.17,1.36-.4.8-.6,1.16c-.41.26-.9.61-1.34.88-.53.51-.85,1.09-1.48,1.65,0,1.45-.68,2-1.27,3a8.27,8.27,0,0,1-1.11,1.55c-.6.53-1.09.53-1.64.94-2.17,2-.31,3.76,1.39,4.59a.88.88,0,0,0,.34.7,1.42,1.42,0,0,0,1.81,0,6.73,6.73,0,0,0,.55-1.32c.38-.85.74-1.58,1-2.35.8-1.57,1.86-2.54,2.08-4.29a4,4,0,0,1,1-.1c.29.05.44.27.57.59a7.5,7.5,0,0,1,1.24,1c.13,1.12.28,2.18.5,3.19a10.93,10.93,0,0,0-.31,1.53c.09.77.24,1.46.34,2.06,0,2.09-.83,5.19.53,6.62a9.11,9.11,0,0,1-.56,2.38c0,1.06-.06,2.13-.15,3.25-.06.94-.16,1.78-.27,2.64.09.72.1,1.43.15,2-.15.93-.29,1.7-.46,2.43,0,2.43.31,4.77-.16,7.16A1.87,1.87,0,0,1,62.92,59a1.11,1.11,0,0,1-.87-.17,2.22,2.22,0,0,1-1.11-1.39c-.38-1.24.12-2.66-1.58-3.1a1.88,1.88,0,0,0-1.21.25c-.41.19-.8.28-1,.69-.69,1.05-1.42,4.32-.38,5.41.35.45,1.28.48,1.76.8.34,0,.22.38.25.72.06.74.46,1.08.62,1.84.22.4.16.88.6,1.31.53.6.91,1,1.39,1.58s.63,1.21.93,1.7a7.71,7.71,0,0,1,.56,1.64c.77,1.61,3.6,2,5,1.14.77-.35,1.46-4.68,1.55-5.78a10,10,0,0,0-.09-1.69c.1-.63.6-1,.59-1.71-.16-1,0-2.12-.07-3.13a15,15,0,0,0-.38-1.93,22.18,22.18,0,0,1-.22-6.39c0-.87.55-1.22.63-1.95.27-1.64-.09-4.06,1.51-4.76a10.78,10.78,0,0,1,2-.21,13.63,13.63,0,0,0,2-.5c.62,0,1.24-.06,1.78-.07,1.08-.18,2.11-.51,3.5-.68a3.13,3.13,0,0,1,1.61.16,14.61,14.61,0,0,1,.89,3.43c0,.82,0,1.75,0,2.58a4.09,4.09,0,0,1-.34,1.41c0,.83.31,1.51.31,2.32.16,1.06,0,2.24.16,3.23.06.68.22,1.35.34,2-.12,1.16-.84,2-1,3.1a13.53,13.53,0,0,0-.06,3.61c.18,2.43-.5,6.15,2.86,5.9a17.89,17.89,0,0,0,4.38-1.64,5.48,5.48,0,0,0,1.17-2A23.71,23.71,0,0,1,93,63.71a2.88,2.88,0,0,0,.62-1.48,6.85,6.85,0,0,0,.9-1.22,5.91,5.91,0,0,0,.66-1.95c.4-1,1.34-1.85,1.46-3a4,4,0,0,0-1-2.53A1,1,0,0,0,94.72,52.87Z"/><path class="cls-1" d="M137.09,48.95a4.3,4.3,0,0,0-2.26-1.25c-1.81-1-4.25-2.72-6.68-2.22-1.25.2-2,1.73-3.22,2.49-.89.77-2.76,1.88-3.61,3.1a4,4,0,0,0-.55,2.83,2.73,2.73,0,0,0,1.53,1.47c2.24,1.16,2.29-.57,3.27-1.92a5.38,5.38,0,0,1,2.05-1.78c.9-.6,1.71.24,2.67.55a1.84,1.84,0,0,0,.77,1.19c.06.75.06,1.42.1,2.08-.19,2.4-1.74,3.44-3.16,5a6.82,6.82,0,0,1-2.52,1.61,24.09,24.09,0,0,1-2.45.41,8.08,8.08,0,0,1-2.94.71A8.32,8.32,0,0,1,116.68,62c-.4-.37-.58-.82-.94-1.21-1.15-1-2.43-1.52-3.45-2.82-.44-.77-1.56-1.62-1.67-2.57-.25-2.93,2.51-5,4.59-6.28.34-.31.63-.66.94-.91a8.68,8.68,0,0,1,1.92-.6c.77-.7,1.55-1.42,2.17-2s1.52-1,2.32-1.6c.4-.46,1-.9,1.4-1.39,1.24-.79,3-1.45,4.31-2.18.72-.48,1.19-1.23,2.06-2l1.4-1.12a4.44,4.44,0,0,0-1-5.38c-1.46-1.33-3-2.89-4.78-3.27a11.73,11.73,0,0,0-2.66-.3c-.9.28-1.92.49-2.8.74-1.42.12-2.08-.46-3.94.52-.87,0-2.17,0-2.85.66a3.94,3.94,0,0,1-1.15,1.14,21.69,21.69,0,0,1-2.11,1.12,4.45,4.45,0,0,0-1.46.6,5.06,5.06,0,0,0-1.21,1.36,20.54,20.54,0,0,0-3.29,3.73c-.74,1.1-.87,2.4-1.45,3.5.32,0-.25,1-.31,1.19-1.71,3.38-1,9.9-.15,13.45a10,10,0,0,0,1.27,2.18c.62.91.81,1.84,1.49,2.66a18.26,18.26,0,0,0,1.4,2,8.58,8.58,0,0,1,1,.87c.15.39.44,1.22,1,1.4,1.15.51,2.7.38,3.64.63s1.25.77,1.93,1c.87.07,1.53.16,2.2.26s1.5.32,2.18.42h2.05a14.56,14.56,0,0,0,2.29.13,3.47,3.47,0,0,0,1.71-.72c1-.31,1.86-.53,2.79-.77a10.3,10.3,0,0,0,2.43-.77c.71-.44.94-1.18,1.5-1.64,2.67-2.45,5.61-5.75,6.17-9.58,0-.91-.1-1.76-.1-2.68A6.59,6.59,0,0,0,137.09,48.95ZM108,47c-.15,0-.07-.11,0-.31.27-1.78.32-3.55,1.17-5A14.33,14.33,0,0,1,114.44,36a6.08,6.08,0,0,0,1.8-.6,18.28,18.28,0,0,1,1.67-1.09,16,16,0,0,0,1.87-.67,8.91,8.91,0,0,0,.78-1.16c.69.07,1.22.52,1.83.52.9.11,1.61-.31,2.36.08,1.5.84.87,4.32,0,5.35-1,1.25-2.45,1.42-3.82,2.32-.63.55-1.14,1-1.74,1.59-.47.28-1,.57-1.52.91-1.06.74-1.37,1.39-2.3,1.95-.74.38-1.7.08-2.68.38-1,.46-1,2.38-2.55,2.47A2.09,2.09,0,0,1,108,47Z"/><path class="cls-1" d="M49.09,49.84c-.34-.4-.53-.87-.94-1.38-.34-1.3-.18-2.67-.65-3.89a13.87,13.87,0,0,0-1.25-2.22c-.46-.31-1-.67-1.59-1a5.55,5.55,0,0,1-1-1.53,16.24,16.24,0,0,1-.83-1.54,8.41,8.41,0,0,0-2.32-2.61,4.82,4.82,0,0,0-2.06-1.06c-1.22-.52-2.29-1.1-3.33-1.54s-1.17-1.16-1.87-1.56c-1-.44-2.17-.46-3.14-.93A10,10,0,0,1,28.37,29c-.62-.45-1.37-.83-2.06-1.27-.72-.27-1.55-.54-2.17-.82-1-.6-2.11-1.2-3.13-1.76-.4-.21-.89-.44-1.46-.75-.62-1-1.24-1.87-1.92-2.74a13.55,13.55,0,0,1-1.24-2.58,7.58,7.58,0,0,1,.44-4.66c.1-.5.18-.84.31-1.31,1.3-2.31,3.86-3.07,6.09-4.43.69-.54,1-1.78,1.55-2.05a6.92,6.92,0,0,1,3.38.41c.32,0,1.11,0,1.81,0,1.09.37,3.64,1.16,4.54,2,.72.69.75,2.06,1,2.89.18.67.25,1.34.43,2,0,2.63-3.26,4-5.5,3.71-1.06-.18-2.58-.86-3.44-.46s-.89,1.56-1,2.28c-.1,1.09.68,1.56,1.52,2.18.32.41.65.77,1,1.22a15.45,15.45,0,0,0,5.35,1.51,22.62,22.62,0,0,0,4.1-1.21c.65-.15,1.17-.37,1.71-.53a32.83,32.83,0,0,0,4-5.73,10.3,10.3,0,0,0-.25-3.61c-.28-1-1.4-1.6-1.61-2.68-.35-1.48.24-3.18-.68-4.39-.84-1.38-6.71-4.4-8.41-4.76A8.18,8.18,0,0,0,30,1.24c-.59-.1-1.31-.31-1.74,0-1.4,0-2.55-.69-4.07-.69-.06.21-.25.32-.25.38a8.55,8.55,0,0,0-3.33.31c-2.55,0-3.82,1.44-5.66,2.85-.55.56-1.15,1-1.5,1.44A23.06,23.06,0,0,0,12.3,7.58c-.94,1.08-2.43,1.83-2.91,3a8.57,8.57,0,0,0-.63,1.66H8.63a4.3,4.3,0,0,1-.44,2.26c-1.45,2.38.28,4.54.87,6.51.38,1.27.52,2.68,1.15,3.58.46.55,1.06,1.1,1.45,1.62a6.6,6.6,0,0,1,1,.91c.81,1.89,1,4.34,4,4,0,.49,5,3.48,5.81,3.82a6.65,6.65,0,0,1,2.24.81,3.77,3.77,0,0,0,.81.79c.49.24,1,.38,1.43.56s.81.6,1.36.91c.8.4,1.84.86,2.73,1.32S32,40.56,32.48,41c.71.27,1.27.53,2,.87.58.42,1.06.78,1.58,1.11a11.06,11.06,0,0,0,1.86,1,11.58,11.58,0,0,1,1.55,2.85,5.36,5.36,0,0,0,.86,1,22.22,22.22,0,0,1,2.4,5.07c.37,1.09,0,2-.25,3.12-.12.91-.28,1.84-.37,2.68a11.7,11.7,0,0,1-.65,2.88A6.46,6.46,0,0,1,40.4,63c-1.78,2.44-5.34,5.37-8.51,6.13a3.16,3.16,0,0,1-1.24-.21c0,.6-2.63,1.48-2.91,1.71-1.27,0-3-.63-4-.16-.5,0-1.71-.46-2.12-.32-1.42,0-2.49-1-3.73-1.56-.8-.22-1.34-.51-2.11-.74-.43-.31-1-.62-1.45-.93a6.51,6.51,0,0,1-1.28-.65,8.6,8.6,0,0,1-3.35-4.39c-.1,0-.1,0-.1-.16a11.26,11.26,0,0,0-.21-3.24c0-.86-1-1.56-1.11-2.38-.53-1.94,1.33-3.36,1.93-5,.63-.21,1.08-.21,1.74-.43,1.17-.38,2.73-.82,3.42-2.15,1.34,0,2.35,2.37,3.2,3.39.25.36.89.59,1.14,1.11.31.89-.07,2.17.52,2.62s2.4,0,3.11,0a4,4,0,0,0,3.33-1.39c1.08-1.68-.1-5.41-.94-6.72-.55-.77-1.36-1.25-1.93-2-.44-.42-.69-.78-1.17-1.29-.9-.87-3.78-2.58-5.1-2a4.84,4.84,0,0,0-2,.49,14.05,14.05,0,0,0-2-.1c-1.08.18-1.59.8-2.77,1.5l-1.14.51a25.45,25.45,0,0,0-5.4,2.53,19.08,19.08,0,0,1-1.21,2.15c-.62,1.28-1.4,2.21-2.17,3.58a4.72,4.72,0,0,0-.38,2.23A5.54,5.54,0,0,0,0,56.69a8.69,8.69,0,0,0,.77,3.56c.38,1.22,1.42,2.3,1.68,3.64.31.8,0,2,.31,2.82S4,68,4.57,68.68a2.5,2.5,0,0,1,.65,1.61c0,.21.09.21.27.27.47.44.9.8,1.37,1.25A13.61,13.61,0,0,0,9,72.5a8.53,8.53,0,0,0,1.92,1.05c.81.76,1.36,1.45,2,2.12.55.26,1.11.57,1.78.85.31.17.78.17,1.17.34a4.46,4.46,0,0,0,2.37,1.62c1.68.36,2.57-1.22,4.1-1.4.81.16,1.74.35,2.42.52,2-.07,3.64-.2,5.72-.21,1.24-.38,1.9-.67,3.17-1.08,2.4-1.25,5.18-2.08,7.3-3.61a13.08,13.08,0,0,0,1.78-1.55c1.06-.76,2.88-1.12,4.07-2.4a12,12,0,0,0,1.33-3c.41-.88.77-1.78,1.08-2.57.06-.55.12-1.17.24-1.74s.53-.89.5-1.56c0-1.1,0-2.2,0-3.36a22.21,22.21,0,0,0-.07-4.45A14.77,14.77,0,0,1,49.09,49.84Z"/><path class="cls-1" d="M299.65,62.35c-.22-.82-.29-1.61-.47-2.49-.9-3.11-4.29-5-7.39-5.25-2.83-.29-3.47-.41-5.49,1-.94.69-2.2,1-2.65,2-1.3,1.83-2.3,9.36,1.78,8.48,2.86-.54.62-3.59,2.14-5.23,1-1.19,4.85-1.36,5.72.16.55.89.56,2.07,1,3a27.7,27.7,0,0,0,.52,3c-.52,0-1.3,2.64-1.7,3.28a6.18,6.18,0,0,1-1,1.39,2.31,2.31,0,0,1-1.61.75c0,.24-.58.38-.75.41-1,.37-1.43,1-2.4,1.06-1.9.37-3.63-1-5.38-1.14-.72-.23-1.52-.38-2.2-.56a7.11,7.11,0,0,1-.83-.69,7.5,7.5,0,0,1-1.8-2.49,9.42,9.42,0,0,1-1-3.3c0-.79.09-1.62.09-2.43-.09-.45-.13-1-.24-1.53a23.06,23.06,0,0,1-.13-3c-.38-1.11-1.08-2.15-1.33-3.21-.19-.85-.35-1.83-.56-2.79a5.15,5.15,0,0,0-1.4-2.05,7.88,7.88,0,0,1-1.14-1.25c-.78-1.37-1.27-2.85-2.11-4.15-.53-.79-1.37-1.36-1.59-2.39a1.29,1.29,0,0,1,.22-1.12c.71-2.08,3.6-.58,5.33-.79a2.26,2.26,0,0,0,1.45-.65c.8-.63,1.45-1.15,2.15-1.78A5.75,5.75,0,0,1,278,37.06a20.59,20.59,0,0,1,2.2-2.54,9.18,9.18,0,0,1,1.08-1.72c.9-1.14,2.21-2,3.25-3.16s1.78-3.07,2.48-4.57c.27-1-.27-2-.32-3a13.5,13.5,0,0,1,.22-1.66,7,7,0,0,0-.78-3.68A12.75,12.75,0,0,0,283,13.22a8.69,8.69,0,0,1-1.27-.56c-.63-.49-1-1-1.58-1.53-2.89-1.71-8.11-3.65-11.55-1.56-1.31,0-2.7-.47-4.07,0-1.17.46-2.57,1.14-3.88,1.75-1,.45-1.58,1.58-3,1.41-2.76-.42-.3-3.87-3.41-4.09a7.51,7.51,0,0,0-1.73,1.25l-2.48.78c-.28,0-.16.58-.16.88-.12.66-.3,1.4-.34,2a22.19,22.19,0,0,0-.9,2.28c-.49,1-.83,2.09-1.34,3-.91,1.39-3,1.7-4.44,2.63-.56.54-1.43,1-2.11,1.59a11.09,11.09,0,0,1-1.74.73c-1.12,0-2.18-.21-2.89.39-.91.63-.22,1.72-.59,2.79a15.68,15.68,0,0,1-.68,1.95c-.49,1.36,1,2.57,2,3,2.11.38,2.89-1.56,3.89-2.6.91-.7,1.92-1.08,2.64-1.71,1.45-1.19,2.51-2.68,4-3.59,0-.19.1-.2.25-.2,0,.68.91,1.27,1.08,2a21.93,21.93,0,0,0,.58,2.77c0,.77-.6,1.43-.55,2.25a16.07,16.07,0,0,0,.21,3.08c.09.66.47,1.22.34,1.94-.19,1.11-.89,1.78-.93,2.92,0,.6,0,1,0,1.45a17.46,17.46,0,0,0-.21,1.87c.15.85.34,1.7.43,2.52,0,1.36,0,2.8.09,4.12s-.65,4.07-.32,4.94a1.71,1.71,0,0,1,.25.53v.4c-.46,0-.46,1.16-.55,1.61.09,1.48.07,3,.24,4.42a6,6,0,0,0-.24,2.31,19.47,19.47,0,0,0,.49,2.26c0,2.06-.91,3.73-1.18,5.7-.12,1.13.77,2.86,2,2.47a10.92,10.92,0,0,0,2.46-1.86c.56-.4,1.18-.34,1.93-.7.12-.16.27-.3.27-.46.85-1.86.43-4.25.29-6.28V61.63c-.13-.71-.29-1.4-.5-2.11-.18-1-.21-1.87-.32-2.79a5.48,5.48,0,0,1-.15-1.19c-.12-1.9.58-3.57.49-5.5-.32-1.78-.58-3.55-.81-5.28,0-1,.15-1.79.22-2.72s0-2,1-2.52c0-.42.56,0,.85,0,.68,0,1.37,0,2.08,0a6,6,0,0,1,1.33,1c1.09.66,2.27,1,3,2.09a35.76,35.76,0,0,1,3.05,5c.44.72,1,1.4,1.42,2.15.35,1.08.41,2.37.66,3.49a30.69,30.69,0,0,0,1.42,3.52c.52,1.54.72,3.92,2.14,4.93a7.12,7.12,0,0,0,.59,3.58c.29.52.59,1,.91,1.51,0,.35-.07,1-.12,1.35-.16.86.72,1.62,1.52,2.28a5.69,5.69,0,0,0-.07,2c.15.59,1.42,2.47,2.08,2.67a7.11,7.11,0,0,0,1,.39c.59.68.93,1.42,1.53,1.66a4.91,4.91,0,0,1,2,.34,8.93,8.93,0,0,0,3.1,1.58c2.77.24,5.35-1.2,7.86-1.89,1.8,0,3.82,0,5.32-1.45a3.1,3.1,0,0,0,1.51-2.26,9,9,0,0,1,.34-1.32,18.46,18.46,0,0,0,1.55-2.57A14.12,14.12,0,0,0,299.65,62.35Zm-34.72-27a11.57,11.57,0,0,1-1.53-.8c-1.18-.32-2.58-.41-3.58-.68-1.55-.36-3.14,0-4.32-.63-1.39-.83-.66-3.17-1-4.62a10.23,10.23,0,0,1,.31-3.7c.09-.42.32-.82.38-1.26.31-3.39-.06-5.77,3.33-7,.62-.19,1.31-.37,1.83-.55.84-.22,1.45-.67,2.33-1a10.52,10.52,0,0,0,4-1.31,10.43,10.43,0,0,1,3.3.36,12.05,12.05,0,0,0,1.37.64c.87,0,1.79-.13,2.66-.18a10.35,10.35,0,0,1,4.91,2.93c.55.6.89,1.18,1.3,1.67.27.34.57.6.87.94.3,0,.21-.12.21.24-.34,0-.27,0-.32.14a11.14,11.14,0,0,0-.89,2.1,4,4,0,0,0-.28,1.48c-.25.93-.83,1.89-1.15,3.05a20.65,20.65,0,0,0-.41,2.3,25.3,25.3,0,0,0-1.56,2.62,6,6,0,0,1-3.56,2.36c-.55,0-1.15,0-1.81,0-.83.18-1.25,1.14-2,1.22C267.8,35.64,266.4,35.45,264.92,35.32Z"/><path class="cls-1" d="M180.68,54.68c-.06-1.08.16-2.28-.34-3-.85-1-2.09-1.57-2.8-2.63s-1.14-2.53-2.4-3.14c-2.18-1-3.23.31-5.28.47-.62,0-1.27-.3-1.79,0a6.85,6.85,0,0,0-4.54,1.59c-1.76,1.35-5.27,6.09-2.73,7.93,1,.7,2.94.87,3.63.11,1.06-.89.6-2.68,1.46-3.67s2-1.14,2.65-1.78c.83-.41,1.22-.91,2.17-.91A8.18,8.18,0,0,1,173.6,52c.81,1.49,1.4,3.74.06,5.2A14.77,14.77,0,0,0,172,58.83c-.53.55-.53,1.45-1.19,1.94-1.28.54-2.85.55-4.13,1.07-1,.89-2.29,1.62-3,2.43-.66.15-1.15.28-1.73.44a3.69,3.69,0,0,0-1.74.63.47.47,0,0,1,0,.15,6.23,6.23,0,0,0-2.42.25c-1.5.75-4.1,3.37-6.08,1.7-.78-.72-.16-1.56-.4-2.47-.38-3.68-.28-7.13-.43-10.82a34,34,0,0,1,.46-8.2c.24-.71.8-1.18,1-1.77.06-.91.16-1.7.24-2.64-.18-1-.3-2.2-.43-3.3.13-.71.22-1.48.34-2.22-.09-.74-.44-1.29-.5-2.09-.22-1.89.16-3.61.07-5.46-.07-1.22-.69-2.5-.74-3.83a11.29,11.29,0,0,1,.68-4c.07-1.1.07-2.22.19-3.26,0-.92,0-2-.12-2.86-.06-.52-.16-1-.25-1.51.25-1.51,1.39-2.53,1.56-3.61a6.32,6.32,0,0,0-1.28-5.08c-1.24-1.26-2.49-1.4-4-2.13-.78-.24-1.12-.8-1.62-1.17a5.33,5.33,0,0,0-4.37-.79A19.43,19.43,0,0,1,139.12,0c-1.67.6-2.6,1.56-4.12,2.53a6.09,6.09,0,0,1-1.39.72c-.38.38-.38,1.14-.77,1.45-.55.35-1.27.35-1.74.72-.35.55-.86,1.12-1.3,1.67-.74.91-1.68,1.5-2,2.79a13.31,13.31,0,0,0,0,4.77c.19.74.75,1.18.86,1.83a13.72,13.72,0,0,0,1.09,3.36c.46.38,1,.83,1.43,1.18.74,1.28,1.95,4.69,3.85,4.48,2.05,0,5.87-3.21,4.44-5.44-.74-1.1-1.86-.55-2.74-1.07a6.1,6.1,0,0,1-2.69-3.47c-.75-2.1-.35-4.84,2-5.93,1.12-.25,1.83-.72,3.05-1,1.28-.52,2.27-1.13,3.56-.79a4.71,4.71,0,0,1,1.68.74c1.77.93,1.77,3,1.39,5a5.08,5.08,0,0,0-.34,1.65,14.51,14.51,0,0,1,.35,1.41v2.66a8.62,8.62,0,0,1,.16,1.78,21.89,21.89,0,0,0-.16,4.18,30,30,0,0,1,.43,3.92c-.1.91-.21,1.68-.31,2.52s.31,1.55.31,2.48a17.9,17.9,0,0,0-.66,3.36,34.82,34.82,0,0,0,.32,3.67c-.13,1.62-.16,3.21-.27,4.86-.06.9-.06,1.67-.18,2.6-.1.32-.18.74-.25,1a19,19,0,0,0,.27,1.94,37.39,37.39,0,0,1-.22,4.87,54.91,54.91,0,0,0-.41,6.8c-.1.53-.28,1.07-.4,1.62-.07,1.14.52,2.55-.25,3.46a29.88,29.88,0,0,1,.16,4.33c0,1.19-2.15,3.73-.68,4.49a8.21,8.21,0,0,0,2,1c2.29.86,1.93-1.31,3.67-1.9a12.92,12.92,0,0,1,3-1.4,10.32,10.32,0,0,0,2.64-.8,5.21,5.21,0,0,1,1-.92,12.33,12.33,0,0,0,3.05-1.14c.6-.43,1.25-.91,2-1.39,1.11-.47,2.39-.53,3.11-1.19,1.17-.6,1.92-1.48,3-2,.65-.27,1.25-.35,1.83-.57s1.11-.47,1.83-.75A20,20,0,0,0,173.9,65c1.08-.8,2-1.59,3-2.36s2.33-1.28,3.17-2.6A9.11,9.11,0,0,0,181,56.3C180.85,55.71,180.79,55.21,180.68,54.68Z"/><path class="cls-1" d="M211.89,30.91a18.87,18.87,0,0,0,2.46-3.65c.24-.36.87-.61.89-1.18.22-1.11-.4-2.09-.47-3.29s.78-1.71.55-2.94-2.68-3.68-3.66-4.24c-.81-.26-1.58-.44-2.35-.7-1.18-.3-3.22-.75-4.47-.13a4.52,4.52,0,0,0-2.76.91,5.86,5.86,0,0,0-1.27.18,9,9,0,0,0-3.56.29,12.2,12.2,0,0,0-4.63.58c-1.18,0-3-1-4.07-.58-.71,0-2-.53-2.49-.32a14.07,14.07,0,0,1-2.27-.32c-1.08-.05-2-.15-2.76-.15-.84-.25-1.78-.52-2.57-.67-1.14-.47-1.68-1.11-3.23-1.19,0,.08,0,.14,0,.18-.89,0-2.58,1.19-3.51,1.59a10,10,0,0,0-4.48,4.26c-.07.48-.32,1-.47,1.56a9.34,9.34,0,0,0-.66,2.2c-.32,3.27,2.15,7.15,4.81,8.86,1.19.7,2.51.37,3.94.07,2.17-.32,4-.25,4.31-2.72a2,2,0,0,0-2.12-2.6c-1,.51-1.95.83-2.94,1.31A3.62,3.62,0,0,1,171,23.5c.25-.78.83-1.17,1.27-1.81.5-.82.68-1.48,1.37-2a7.58,7.58,0,0,1,3.24-.65,28.39,28.39,0,0,1,4.54.53c.43.06.94.1,1.59.15.77.3,1.46.56,2.23.79s1.28.29,1.77.35a3.4,3.4,0,0,1,1.55,1.71c.65,1.65-.35,3.18-.18,4.47a2.29,2.29,0,0,0,.38,1.14,6.28,6.28,0,0,1-.69,5.13c.22,0,0,.47,0,.75,0,2.8-.25,5.66.44,8.19.47,0,.07.47,0,.71a16.15,16.15,0,0,0-.49,3.84c.12,1.1,1,1.87.46,3.25-.07,0-.07.15-.16.24v.16c0,.07-.06.08-.06.12-.46,1.22.06,1.56.06,2.68a27.92,27.92,0,0,0-.32,3.19,9.85,9.85,0,0,0-.31,2.74c0,.34.09.74.1,1.07-.24.57-.32,1.11-.6,1.71a7.45,7.45,0,0,1-.27,1.86,5.52,5.52,0,0,0-.72,1.93c0,.15,0,.29,0,.45.19.47,5.93,2.53,6.8,2.4,1.27-.13,1.5-1.75,1.52-2.83A27.88,27.88,0,0,0,194,62c-.38-2.4-.5-4.79-1-7.11a9.88,9.88,0,0,1,.06-3.73c.21-.74.74-1,.9-1.67a22.36,22.36,0,0,1-.31-3.16c0-.55,0-1,.07-1.61-.07-.8-.25-1.73-.25-2.58.07-1,.52-2,.53-2.94-.21-.61-.24-1.12-.35-1.54,0-1.34.12-2.6.19-3.89.21-1,.49-2,.78-3.1.1-.83-.46-1.31-.46-1.94a33.91,33.91,0,0,1,0-4.23c.19-.56.35-1.12.58-1.75a8.68,8.68,0,0,1,.28-1.13c.59-1,2.4-.47,3.48-.7a5.59,5.59,0,0,1,1.45-.63c0-.44.49-.2.65-.14,2.52.23,5.5-1.46,8-.71,0,.65.86,1.43,1.36,2,.66,1.08.58,4.1-.21,5.08a4.51,4.51,0,0,1-1.55,1.06c-1.76,0-5.94-1.79-6,1.25a3.77,3.77,0,0,0,1.92,3.1c.38.22.63.68,1.06.82A8.19,8.19,0,0,0,211.89,30.91Z"/><path class="cls-1" d="M237.23,54.51c-1.62-2.14-7.38-2.6-10.15-3.07,0,.27-.09.22-.19.27-3,1.62-4.88,3-5.72,6.51,0,.45-.32,1.17-.07,1.64a3.24,3.24,0,0,0,1.65.85c2.64.38,2.55-2.68,4.14-3.64,1.58-1.18,4,.21,5.3,1,0,2.32-1.74,4.34-2.8,6.22a3.35,3.35,0,0,1-.5,1A8.44,8.44,0,0,1,225,66.4a11.39,11.39,0,0,1-1.56.64,9.29,9.29,0,0,0-3,.65,7,7,0,0,1-3.3-.74c-.58-.35-.75-1-1.14-1.46-.8-1.22-2.06-2-3-3.37-.24-.55-.41-1.13-.71-1.75-.18-.35-.59-.92-.38-1.49,0-.21-.21-.29-.21-.49a2,2,0,0,1-.09-.71,5.26,5.26,0,0,1,.91-2c.72-1,2-1.18,3.1-1.7.53-.44.91-.92,1.4-1.28a10.63,10.63,0,0,1,2.15-1.28,10.15,10.15,0,0,1,1-.69c.46-.16.94-.38,1.45-.61a13.22,13.22,0,0,1,1.37-.6,5.57,5.57,0,0,0,1.56-.41c.93-.38,1.21-1.24,2.43-1.65,1.62-.66,3.6-1,4.88-2.21s1.81-1.95,1.81-3.89c0-4.31-2.68-4.49-5.87-5.32a15.72,15.72,0,0,0-2.77-.79,15.92,15.92,0,0,0-2.1.47h-1.59a32.47,32.47,0,0,0-4.29,1.3,7.3,7.3,0,0,0-2.14.63c-.59.55-1.09,1.06-1.7,1.59a19.77,19.77,0,0,0-1.86,1.4,10.69,10.69,0,0,0-1,1.47A11.35,11.35,0,0,0,209,43.77c-.27.49-.47,1-.65,1.38s-.57.67-.84,1.09a8,8,0,0,0-1.22,2c-.87,1.76.19,2.63.18,4.22,0,1.42-.81,2.57-.84,4a18.64,18.64,0,0,0,.56,4.08,14.1,14.1,0,0,0,.66,3.2c.47.92,1.17,1.54,1.58,2.43.35.71.84,1.94,1.67,2.38A19.43,19.43,0,0,0,213.6,70c2.24.94,4.25,3,7,2.92,1,0,1.67-.55,2.54-.62,2.08-.37,4.2-.35,6-1.25a11,11,0,0,0,1.95-1.45c1.42-1,3.17-1.84,4.28-3.5,1-1.36,1.28-3,1.9-4.56.44-.8,1.68-2.6,1.59-3.6A9.46,9.46,0,0,0,237.9,56C237.7,55.52,237.47,55,237.23,54.51Zm-25.7-6.26c0-2.46,1.86-3.38,3.38-4.79.69-.54,1-1.48,1.71-2a6.92,6.92,0,0,0,1-.26,9.45,9.45,0,0,0,1.4-1.13c.78-.27,1.62-.55,2.42-.86a8.15,8.15,0,0,0,2.51,0,10,10,0,0,1,3.44,1.21,3.41,3.41,0,0,1-.16,1.85,5,5,0,0,1-2.17,2,27,27,0,0,1-5.68,3c-.69.15-1.39.35-1.86.5s-.78.78-1.25,1.17A20.07,20.07,0,0,1,214,50.36c-.43.25-1.24,0-1.83.2-.27,0-.49-.45-.59-.74A6.49,6.49,0,0,1,211.54,48.25Z"/></svg>