<svg xmlns="http://www.w3.org/2000/svg" viewBox="0 0 310.79 160.33"><defs><style>.cls-1{fill:gray;}.cls-2{fill:#fff;}.cls-3{fill:#ea3a3a;}</style></defs><g id="レイヤー_2" data-name="レイヤー 2"><path class="cls-1" d="M296.17,130.67H.5a.5.5,0,0,1-.5-.5.5.5,0,0,1,.5-.5H296.17a.5.5,0,0,1,.5.5A.51.51,0,0,1,296.17,130.67Z"/><path class="cls-1" d="M296.17,91.33H.5a.5.5,0,0,1-.5-.5.5.5,0,0,1,.5-.5H296.17a.51.51,0,0,1,.5.5A.5.5,0,0,1,296.17,91.33Z"/><path class="cls-1" d="M296.17,51.67H.5a.5.5,0,0,1-.5-.5.5.5,0,0,1,.5-.5H296.17a.5.5,0,0,1,.5.5A.51.51,0,0,1,296.17,51.67Z"/><path class="cls-1" d="M294.5,150h-2v-1h2Zm-4,0h-2v-1h2Zm-4,0h-2v-1h2Zm-4,0h-2v-1h2Zm-4,0h-2v-1h2Zm-4,0h-2v-1h2Zm-4,0h-2v-1h2Zm-4,0h-2v-1h2Zm-4,0h-2v-1h2Zm-4,0h-2v-1h2Zm-4,0h-2v-1h2Zm-4,0h-2v-1h2Zm-4,0h-2v-1h2Zm-4,0h-2v-1h2Zm-4,0h-2v-1h2Zm-4,0h-2v-1h2Zm-4,0h-2v-1h2Zm-4,0h-2v-1h2Zm-4,0h-2v-1h2Zm-4,0h-2v-1h2Zm-4,0h-2v-1h2Zm-4,0h-2v-1h2Zm-4,0h-2v-1h2Zm-4,0h-2v-1h2Zm-4,0h-2v-1h2Zm-4,0h-2v-1h2Zm-4,0h-2v-1h2Zm-4,0h-2v-1h2Zm-4,0h-2v-1h2Zm-4,0h-2v-1h2Zm-4,0h-2v-1h2Zm-4,0h-2v-1h2Zm-4,0h-2v-1h2Zm-4,0h-2v-1h2Zm-4,0h-2v-1h2Zm-4,0h-2v-1h2Zm-4,0h-2v-1h2Zm-4,0h-2v-1h2Zm-4,0h-2v-1h2Zm-4,0h-2v-1h2Zm-4,0h-2v-1h2Zm-4,0h-2v-1h2Zm-4,0h-2v-1h2Zm-4,0h-2v-1h2Zm-4,0h-2v-1h2Zm-4,0h-2v-1h2Zm-4,0h-2v-1h2Zm-4,0h-2v-1h2Zm-4,0h-2v-1h2Zm-4,0h-2v-1h2Zm-4,0h-2v-1h2Zm-4,0h-2v-1h2Zm-4,0h-2v-1h2Zm-4,0h-2v-1h2Zm-4,0h-2v-1h2Zm-4,0h-2v-1h2Zm-4,0h-2v-1h2Zm-4,0h-2v-1h2Zm-4,0h-2v-1h2Zm-4,0h-2v-1h2Zm-4,0h-2v-1h2Zm-4,0h-2v-1h2Zm-4,0h-2v-1h2Zm-4,0h-2v-1h2Zm-4,0h-2v-1h2Zm-4,0h-2v-1h2Zm-4,0h-2v-1h2Zm-4,0h-2v-1h2Zm-4,0h-2v-1h2Zm-4,0h-2v-1h2Zm-4,0h-2v-1h2Zm-4,0h-2v-1h2Zm-4,0h-2v-1h2Zm-4,0H.5v-1h2Z"/><path class="cls-1" d="M58.17,160.33a.5.5,0,0,1-.5-.5V.83a.5.5,0,0,1,.5-.5.51.51,0,0,1,.5.5v159A.5.5,0,0,1,58.17,160.33Z"/><path class="cls-1" d="M140.83,91a.5.5,0,0,1-.5-.5V.5a.5.5,0,0,1,.5-.5.5.5,0,0,1,.5.5v90A.5.5,0,0,1,140.83,91Z"/><path class="cls-1" d="M185.17,130.67a.58.58,0,0,1-.19,0,.5.5,0,0,1-.31-.46V19.33H.5a.5.5,0,0,1-.5-.5.5.5,0,0,1,.5-.5H184.67V.5a.5.5,0,0,1,.5-.5.5.5,0,0,1,.5.5V18.33h110.5a.5.5,0,0,1,.46.31.51.51,0,0,1-.11.55l-111,111.33A.47.47,0,0,1,185.17,130.67Zm.5-111.34V129L295,19.33Z"/><path class="cls-1" d="M225.17,90.67a.5.5,0,0,1-.5-.5V.5a.5.5,0,0,1,.5-.5.5.5,0,0,1,.5.5V90.17A.51.51,0,0,1,225.17,90.67Z"/><line class="cls-1" x1="58.83" y1="19.5" x2="185.17" y2="130.17"/><path class="cls-1" d="M185.17,130.67a.46.46,0,0,1-.33-.13L58.5,19.88a.5.5,0,0,1,0-.71.49.49,0,0,1,.7-.05L185.5,129.79a.51.51,0,0,1,0,.71A.5.5,0,0,1,185.17,130.67Z"/><path class="cls-1" d="M55.33,27.17h-6v-6h6Zm-5-1h4v-4h-4Z"/><path class="cls-1" d="M67.17,99.17h-6v-6h6Zm-5-1h4v-4h-4Z"/><path class="cls-1" d="M55.33,128.17h-6v-6h6Zm-5-1h4v-4h-4Z"/><path class="cls-1" d="M121.17,99.17h-6v-6h6Zm-5-1h4v-4h-4Z"/><path class="cls-1" d="M149.83,88.83h-6v-6h6Zm-5-1h4v-4h-4Z"/><path class="cls-1" d="M193.83,79.5h-6v-6h6Zm-5-1h4v-4h-4Z"/><path class="cls-1" d="M101.17,48.57h-6v-6h6Zm-5-1h4v-4h-4Z"/><path class="cls-1" d="M193.83,39.5h-6v-6h6Zm-5-1h4v-4h-4Z"/><path class="cls-1" d="M203.17,128.5h-6v-6h6Zm-5-1h4v-4h-4Z"/><polygon class="cls-1" points="172.87 126.25 172.83 135.17 161.5 135.17 161.5 158.83 221.17 158.83 221.17 135.5 193.5 135.5 193.5 126.17 172.87 126.25"/><path class="cls-1" d="M55.33,16.67h-6v-6h6Zm-5-1h4v-4h-4Z"/><path class="cls-1" d="M25.56,11.1H26V15h1.66v.43H25.56Z"/><path class="cls-1" d="M31.44,12.23v3.19H31v-.55a1.82,1.82,0,0,1-.58.47,1.66,1.66,0,0,1-.7.15A1.59,1.59,0,0,1,28.59,15a1.66,1.66,0,0,1-.48-1.2,1.58,1.58,0,0,1,.49-1.17,1.56,1.56,0,0,1,1.16-.49,1.52,1.52,0,0,1,.71.17,1.61,1.61,0,0,1,.56.49v-.58Zm-1.65.32a1.23,1.23,0,0,0-.62.17,1.16,1.16,0,0,0-.46.47,1.2,1.2,0,0,0-.17.64,1.23,1.23,0,0,0,.17.64,1.18,1.18,0,0,0,.46.48,1.23,1.23,0,0,0,.62.17,1.33,1.33,0,0,0,.64-.17,1.13,1.13,0,0,0,.46-.46,1.37,1.37,0,0,0-.2-1.57A1.19,1.19,0,0,0,29.79,12.55Z"/><path class="cls-1" d="M31.93,12.23h.42l1,2.31,1-2.31h.06l1,2.31,1-2.31h.42l-1.37,3.19h-.07l-1-2.28-1,2.28H33.3Z"/><path class="cls-1" d="M39,12.57l-.27.28a.92.92,0,0,0-.65-.32.48.48,0,0,0-.34.13.43.43,0,0,0-.14.31.44.44,0,0,0,.12.29,1.47,1.47,0,0,0,.49.34,1.76,1.76,0,0,1,.62.46.8.8,0,0,1,.17.5.91.91,0,0,1-.28.66.93.93,0,0,1-.69.27,1.24,1.24,0,0,1-.53-.12,1.07,1.07,0,0,1-.41-.32l.26-.3a.87.87,0,0,0,.66.35.6.6,0,0,0,.42-.15.49.49,0,0,0,.18-.38.47.47,0,0,0-.12-.31,2,2,0,0,0-.52-.34,1.61,1.61,0,0,1-.58-.44.76.76,0,0,1-.16-.49.79.79,0,0,1,.25-.6.87.87,0,0,1,.63-.24A1.33,1.33,0,0,1,39,12.57Z"/><path class="cls-1" d="M41.19,12.15a1.59,1.59,0,0,1,1.22.53,1.71,1.71,0,0,1,0,2.32,1.55,1.55,0,0,1-1.19.49A1.57,1.57,0,0,1,40,15a1.66,1.66,0,0,1-.46-1.17A1.6,1.6,0,0,1,40,12.69,1.57,1.57,0,0,1,41.19,12.15Zm0,.4a1.2,1.2,0,0,0-.88.38,1.26,1.26,0,0,0-.36.91,1.2,1.2,0,0,0,.17.64,1.2,1.2,0,0,0,1.07.62,1.22,1.22,0,0,0,.62-.16,1.17,1.17,0,0,0,.45-.46,1.3,1.3,0,0,0,.17-.64,1.27,1.27,0,0,0-.37-.91A1.2,1.2,0,0,0,41.19,12.55Z"/><path class="cls-1" d="M43.61,12.23H44v.57a1.65,1.65,0,0,1,.54-.49,1.31,1.31,0,0,1,.65-.16,1.16,1.16,0,0,1,.63.18,1.07,1.07,0,0,1,.4.49,2.52,2.52,0,0,1,.14,1v1.64H46V13.9a4,4,0,0,0,0-.74.81.81,0,0,0-.27-.47.79.79,0,0,0-.52-.16,1,1,0,0,0-.67.24,1.2,1.2,0,0,0-.38.61,4.18,4.18,0,0,0-.06.87v1.17h-.42Z"/><path class="cls-1" d="M7.33,25.61l.37-.22c.26.48.55.71.89.71A.83.83,0,0,0,9,26a.69.69,0,0,0,.29-.27.75.75,0,0,0,.1-.36A.7.7,0,0,0,9.24,25a3.17,3.17,0,0,0-.74-.7,3.88,3.88,0,0,1-.67-.58A1.11,1.11,0,0,1,7.61,23a1,1,0,0,1,.13-.52,1,1,0,0,1,.38-.36A1.08,1.08,0,0,1,8.65,22a1.11,1.11,0,0,1,.57.16,1.92,1.92,0,0,1,.57.55L9.43,23A1.7,1.7,0,0,0,9,22.54a.72.72,0,0,0-.38-.1.57.57,0,0,0-.42.16.51.51,0,0,0-.17.39.66.66,0,0,0,.06.27,1.15,1.15,0,0,0,.21.29l.56.43a3,3,0,0,1,.77.74,1.16,1.16,0,0,1,.21.64,1.09,1.09,0,0,1-.36.82,1.22,1.22,0,0,1-.87.35,1.26,1.26,0,0,1-.71-.21A2,2,0,0,1,7.33,25.61Z"/><path class="cls-1" d="M13.38,25.36l.35.18a2.11,2.11,0,0,1-.4.54,1.51,1.51,0,0,1-.5.31,1.74,1.74,0,0,1-.63.1A1.5,1.5,0,0,1,11,26a1.68,1.68,0,0,1-.44-1.15,1.7,1.7,0,0,1,.37-1.08,1.51,1.51,0,0,1,1.26-.6,1.56,1.56,0,0,1,1.3.62,1.75,1.75,0,0,1,.36,1.08H11a1.29,1.29,0,0,0,.35.91,1.13,1.13,0,0,0,.85.36,1.28,1.28,0,0,0,.86-.31A1.63,1.63,0,0,0,13.38,25.36Zm0-.86a1.2,1.2,0,0,0-.24-.52,1.11,1.11,0,0,0-.41-.32,1.25,1.25,0,0,0-.54-.12,1.2,1.2,0,0,0-.81.3,1.4,1.4,0,0,0-.37.66Z"/><path class="cls-1" d="M14.3,23.23h.43l1.08,2.34,1.07-2.34h.43l-1.47,3.19h-.07Z"/><path class="cls-1" d="M20.61,25.36l.34.18a1.88,1.88,0,0,1-.39.54,1.74,1.74,0,0,1-.5.31,1.81,1.81,0,0,1-.63.1A1.52,1.52,0,0,1,18.21,26a1.72,1.72,0,0,1-.44-1.15,1.76,1.76,0,0,1,.37-1.08,1.54,1.54,0,0,1,1.27-.6,1.59,1.59,0,0,1,1.3.62,1.69,1.69,0,0,1,.35,1.08H18.19a1.29,1.29,0,0,0,.36.91,1.12,1.12,0,0,0,.84.36,1.56,1.56,0,0,0,.48-.08,1.49,1.49,0,0,0,.39-.23A2.13,2.13,0,0,0,20.61,25.36Zm0-.86a1.48,1.48,0,0,0-.24-.52,1.14,1.14,0,0,0-.42-.32,1.25,1.25,0,0,0-.54-.12,1.15,1.15,0,0,0-.8.3,1.41,1.41,0,0,0-.38.66Z"/><path class="cls-1" d="M21.52,23.23H22L23,25.57l1.08-2.34h.43l-1.47,3.19H23Z"/><path class="cls-1" d="M25.15,23.23h.42v.57a1.65,1.65,0,0,1,.54-.49,1.31,1.31,0,0,1,.65-.16,1.16,1.16,0,0,1,.63.18,1.07,1.07,0,0,1,.4.49,2.52,2.52,0,0,1,.14,1v1.64h-.42V24.9a4,4,0,0,0,0-.74.76.76,0,0,0-.27-.47.79.79,0,0,0-.52-.16,1,1,0,0,0-.67.24,1.2,1.2,0,0,0-.38.61,4.18,4.18,0,0,0-.06.87v1.17h-.42Z"/><path class="cls-1" d="M28.88,22.1h2.47v.43h-2v1.35h2v.42h-2V26h2v.43H28.88Z"/><path class="cls-1" d="M32,22h.41v4.43H32Z"/><path class="cls-1" d="M35.91,25.36l.34.18a1.88,1.88,0,0,1-.39.54,1.61,1.61,0,0,1-.5.31,1.81,1.81,0,0,1-.63.1A1.53,1.53,0,0,1,33.51,26a1.72,1.72,0,0,1-.06-2.23,1.51,1.51,0,0,1,1.26-.6,1.57,1.57,0,0,1,1.3.62,1.69,1.69,0,0,1,.35,1.08H33.5a1.24,1.24,0,0,0,.35.91,1.13,1.13,0,0,0,.85.36,1.55,1.55,0,0,0,.47-.08,1.49,1.49,0,0,0,.39-.23A1.85,1.85,0,0,0,35.91,25.36Zm0-.86a1.48,1.48,0,0,0-.24-.52,1.11,1.11,0,0,0-.41-.32,1.33,1.33,0,0,0-.55-.12,1.15,1.15,0,0,0-.8.3,1.32,1.32,0,0,0-.37.66Z"/><path class="cls-1" d="M36.82,23.23h.43l1.08,2.34,1.08-2.34h.43l-1.47,3.19h-.08Z"/><path class="cls-1" d="M43.13,25.36l.35.18a2.35,2.35,0,0,1-.39.54,1.66,1.66,0,0,1-.51.31,1.72,1.72,0,0,1-.62.1A1.52,1.52,0,0,1,40.74,26a1.68,1.68,0,0,1-.44-1.15,1.7,1.7,0,0,1,.37-1.08,1.52,1.52,0,0,1,1.26-.6,1.59,1.59,0,0,1,1.31.62,1.75,1.75,0,0,1,.35,1.08H40.72a1.33,1.33,0,0,0,.35.91,1.13,1.13,0,0,0,.85.36,1.5,1.5,0,0,0,.47-.08,1.22,1.22,0,0,0,.39-.23A1.63,1.63,0,0,0,43.13,25.36Zm0-.86A1.32,1.32,0,0,0,42.9,24a1.23,1.23,0,0,0-.42-.32,1.25,1.25,0,0,0-.54-.12,1.2,1.2,0,0,0-.81.3,1.4,1.4,0,0,0-.37.66Z"/><path class="cls-1" d="M44.35,23.23h.42v.57a1.65,1.65,0,0,1,.54-.49,1.31,1.31,0,0,1,.65-.16,1.13,1.13,0,0,1,.63.18,1.15,1.15,0,0,1,.41.49,2.78,2.78,0,0,1,.13,1v1.64h-.42V24.9a4,4,0,0,0,0-.74.72.72,0,0,0-.27-.47.79.79,0,0,0-.52-.16,1,1,0,0,0-.67.24,1.2,1.2,0,0,0-.38.61,4.18,4.18,0,0,0-.06.87v1.17h-.42Z"/><path class="cls-1" d="M104.86,43.1h.43V47H107v.43h-2.09Z"/><path class="cls-1" d="M110.74,44.23v3.19h-.42v-.55a1.72,1.72,0,0,1-.58.47,1.6,1.6,0,0,1-.7.15,1.56,1.56,0,0,1-1.15-.48,1.66,1.66,0,0,1-.48-1.2,1.61,1.61,0,0,1,.48-1.17,1.61,1.61,0,0,1,1.88-.32,1.59,1.59,0,0,1,.55.49v-.58Zm-1.65.32a1.24,1.24,0,0,0-.63.17,1.3,1.3,0,0,0-.63,1.11,1.33,1.33,0,0,0,.17.64,1.25,1.25,0,0,0,.46.48,1.25,1.25,0,0,0,1.26,0,1.08,1.08,0,0,0,.46-.46,1.29,1.29,0,0,0,.17-.65,1.24,1.24,0,0,0-.37-.92A1.19,1.19,0,0,0,109.09,44.55Z"/><path class="cls-1" d="M111.23,44.23h.42l1,2.31,1-2.31h.06l1,2.31,1-2.31h.43l-1.38,3.19h-.07l-1-2.28-1,2.28h-.09Z"/><path class="cls-1" d="M118.25,44.57l-.26.28a.93.93,0,0,0-.65-.32.47.47,0,0,0-.34.13.4.4,0,0,0-.15.31.44.44,0,0,0,.12.29,1.54,1.54,0,0,0,.5.34,1.86,1.86,0,0,1,.62.46.79.79,0,0,1,.16.5.9.9,0,0,1-.27.66,1,1,0,0,1-.69.27,1.21,1.21,0,0,1-.53-.12,1,1,0,0,1-.41-.32l.25-.3a.88.88,0,0,0,.67.35.64.64,0,0,0,.42-.15.52.52,0,0,0,.17-.38.51.51,0,0,0-.11-.31,2,2,0,0,0-.52-.34,1.66,1.66,0,0,1-.59-.44.87.87,0,0,1,.09-1.09.88.88,0,0,1,.63-.24A1.31,1.31,0,0,1,118.25,44.57Z"/><path class="cls-1" d="M120.48,44.15a1.58,1.58,0,0,1,1.22.53,1.64,1.64,0,0,1,.44,1.15,1.66,1.66,0,0,1-.46,1.17,1.7,1.7,0,0,1-2.39,0,1.67,1.67,0,0,1-.47-1.17,1.65,1.65,0,0,1,.44-1.14A1.58,1.58,0,0,1,120.48,44.15Zm0,.4a1.17,1.17,0,0,0-.87.38,1.26,1.26,0,0,0-.36.91,1.29,1.29,0,0,0,.16.64,1.17,1.17,0,0,0,.45.46,1.3,1.3,0,0,0,1.25,0,1.32,1.32,0,0,0,.45-.46,1.29,1.29,0,0,0,.16-.64,1.26,1.26,0,0,0-.36-.91A1.2,1.2,0,0,0,120.48,44.55Z"/><path class="cls-1" d="M122.91,44.23h.41v.57a1.88,1.88,0,0,1,.54-.49,1.33,1.33,0,0,1,.65-.16,1.11,1.11,0,0,1,.63.18,1.09,1.09,0,0,1,.41.49,2.56,2.56,0,0,1,.13,1v1.64h-.41V45.9a3.68,3.68,0,0,0,0-.74.75.75,0,0,0-.26-.47.82.82,0,0,0-.53-.16,1,1,0,0,0-.66.24,1.15,1.15,0,0,0-.39.61,4.18,4.18,0,0,0-.06.87v1.17h-.41Z"/><path class="cls-1" d="M127.22,43.1h.85v4.32h-.43V43.53H127Z"/><path class="cls-1" d="M129.62,45.26a3.8,3.8,0,0,1,.18-1.32,1.61,1.61,0,0,1,.52-.71,1.24,1.24,0,0,1,.75-.24,1.3,1.3,0,0,1,.76.25,1.71,1.71,0,0,1,.54.72,4.54,4.54,0,0,1,0,2.6,1.56,1.56,0,0,1-.54.72,1.3,1.3,0,0,1-.76.25,1.24,1.24,0,0,1-.75-.24,1.54,1.54,0,0,1-.51-.71A3.55,3.55,0,0,1,129.62,45.26Zm.41,0a3.42,3.42,0,0,0,.13,1.1,1.13,1.13,0,0,0,.38.57.88.88,0,0,0,.54.2.93.93,0,0,0,.54-.19,1.27,1.27,0,0,0,.38-.57,3.62,3.62,0,0,0,.16-1.11A3.2,3.2,0,0,0,132,44.2a1.2,1.2,0,0,0-.39-.61.86.86,0,0,0-1.08,0,1.2,1.2,0,0,0-.38.57A3.49,3.49,0,0,0,130,45.27Z"/><path class="cls-1" d="M132.94,45.26a3.77,3.77,0,0,1,.19-1.32,1.54,1.54,0,0,1,.52-.71,1.23,1.23,0,0,1,.74-.24,1.28,1.28,0,0,1,.76.25,1.56,1.56,0,0,1,.54.72,3.58,3.58,0,0,1,.2,1.3,3.38,3.38,0,0,1-.2,1.3,1.62,1.62,0,0,1-.53.72,1.33,1.33,0,0,1-.77.25,1.23,1.23,0,0,1-.74-.24,1.55,1.55,0,0,1-.52-.71A3.77,3.77,0,0,1,132.94,45.26Zm.41,0a3.42,3.42,0,0,0,.13,1.1,1.21,1.21,0,0,0,.39.57.83.83,0,0,0,1.07,0,1.13,1.13,0,0,0,.38-.57,3.34,3.34,0,0,0,.16-1.11,3.23,3.23,0,0,0-.14-1.07,1.28,1.28,0,0,0-.4-.61.93.93,0,0,0-.53-.19.91.91,0,0,0-.54.19,1.21,1.21,0,0,0-.39.57A3.49,3.49,0,0,0,133.35,45.27Z"/><path class="cls-1" d="M188.42,45.92l.6-4.32h.09l1.75,3.54,1.74-3.54h.07l.61,4.32h-.42l-.42-3.09-1.53,3.09h-.11l-1.54-3.11-.42,3.11Z"/><path class="cls-1" d="M195.56,42.65a1.59,1.59,0,0,1,1.22.53,1.64,1.64,0,0,1,.44,1.15,1.66,1.66,0,0,1-.46,1.17,1.57,1.57,0,0,1-1.2.49,1.53,1.53,0,0,1-1.19-.49,1.67,1.67,0,0,1-.47-1.17,1.65,1.65,0,0,1,.44-1.14A1.57,1.57,0,0,1,195.56,42.65Zm0,.4a1.17,1.17,0,0,0-.87.38,1.23,1.23,0,0,0-.37.91,1.3,1.3,0,0,0,.17.64,1.17,1.17,0,0,0,.45.46,1.22,1.22,0,0,0,.62.16,1.2,1.2,0,0,0,1.07-.62,1.3,1.3,0,0,0,.17-.64,1.23,1.23,0,0,0-.37-.91A1.17,1.17,0,0,0,195.56,43.05Z"/><path class="cls-1" d="M199.59,43.07l-.27.28a.91.91,0,0,0-.64-.32.49.49,0,0,0-.35.13.43.43,0,0,0-.14.31.44.44,0,0,0,.12.29,1.59,1.59,0,0,0,.49.34,1.82,1.82,0,0,1,.63.46.85.85,0,0,1,.16.5.87.87,0,0,1-.28.66.93.93,0,0,1-.69.27,1.17,1.17,0,0,1-.52-.12,1,1,0,0,1-.42-.32l.26-.3a.87.87,0,0,0,.66.35.6.6,0,0,0,.42-.15.49.49,0,0,0,.18-.38.47.47,0,0,0-.12-.31,1.87,1.87,0,0,0-.51-.34A1.57,1.57,0,0,1,198,44a.76.76,0,0,1-.16-.49.82.82,0,0,1,.25-.6.88.88,0,0,1,.63-.24A1.33,1.33,0,0,1,199.59,43.07Z"/><path class="cls-1" d="M202.05,41.6h.85a1.88,1.88,0,0,1,.79.13.91.91,0,0,1,.43.37,1,1,0,0,1,.16.56,1,1,0,0,1-.55.91,1.33,1.33,0,0,1,.52.27,1.09,1.09,0,0,1,.38.84,1.14,1.14,0,0,1-.38.88,1.4,1.4,0,0,1-1,.36h-1.19Zm.43.43v1.38h.25a2.06,2.06,0,0,0,.65-.08.73.73,0,0,0,.33-.27.71.71,0,0,0,.13-.4.58.58,0,0,0-.21-.47A1,1,0,0,0,203,42Zm0,1.82v1.64H203a1.9,1.9,0,0,0,.69-.09.67.67,0,0,0,.35-.29.73.73,0,0,0,.14-.42.71.71,0,0,0-.19-.5,1,1,0,0,0-.52-.29,3.3,3.3,0,0,0-.75,0Z"/><path class="cls-1" d="M205.36,42.73h.41v1.49a3,3,0,0,0,.06.74.85.85,0,0,0,.34.47,1,1,0,0,0,.59.17,1,1,0,0,0,.59-.17.83.83,0,0,0,.33-.43,3.22,3.22,0,0,0,.06-.78V42.73h.42v1.56a2.47,2.47,0,0,1-.16,1,1.19,1.19,0,0,1-.46.53,1.78,1.78,0,0,1-1.56,0,1.27,1.27,0,0,1-.47-.53,2.67,2.67,0,0,1-.15-1Z"/><path class="cls-1" d="M208.91,42.73h.42v.46a1.36,1.36,0,0,1,.39-.4.82.82,0,0,1,.44-.14.78.78,0,0,1,.36.11l-.21.34a.74.74,0,0,0-.22-.05.62.62,0,0,0-.4.17,1.11,1.11,0,0,0-.29.52,5.19,5.19,0,0,0-.07,1.1v1.08h-.42Z"/><path class="cls-1" d="M213.62,42.73H214v2.54a3,3,0,0,1-.12,1,1.27,1.27,0,0,1-.56.67,1.85,1.85,0,0,1-1,.24,2.07,2.07,0,0,1-.73-.12,1.42,1.42,0,0,1-.54-.31,2.08,2.08,0,0,1-.38-.57h.45a1.18,1.18,0,0,0,.47.47,1.76,1.76,0,0,0,1.42,0,1,1,0,0,0,.41-.39,1.81,1.81,0,0,0,.12-.77v-.16a1.44,1.44,0,0,1-.56.45,1.71,1.71,0,0,1-.71.16,1.75,1.75,0,0,1-.83-.22,1.63,1.63,0,0,1-.58-2.22,1.53,1.53,0,0,1,.6-.61,1.71,1.71,0,0,1,.82-.22,1.53,1.53,0,0,1,.67.15,1.81,1.81,0,0,1,.59.48Zm-1.2.32a1.31,1.31,0,0,0-.65.17,1.16,1.16,0,0,0-.46.47,1.18,1.18,0,0,0-.17.64,1.15,1.15,0,0,0,.35.87,1.37,1.37,0,0,0,1.81,0,1.23,1.23,0,0,0,.34-.89,1.25,1.25,0,0,0-.16-.65,1.12,1.12,0,0,0-.44-.45A1.25,1.25,0,0,0,212.42,43.05Z"/><path class="cls-1" d="M217.59,44.86l.35.18a1.88,1.88,0,0,1-.39.54,1.74,1.74,0,0,1-.5.31,1.81,1.81,0,0,1-.63.1,1.52,1.52,0,0,1-1.22-.51,1.72,1.72,0,0,1-.44-1.15,1.7,1.7,0,0,1,.37-1.08,1.54,1.54,0,0,1,1.27-.6,1.59,1.59,0,0,1,1.3.62,1.69,1.69,0,0,1,.35,1.08h-2.87a1.29,1.29,0,0,0,.36.91,1.1,1.1,0,0,0,.84.36,1.61,1.61,0,0,0,.48-.08,1.49,1.49,0,0,0,.39-.23A1.85,1.85,0,0,0,217.59,44.86Zm0-.86a1.48,1.48,0,0,0-.24-.52,1.14,1.14,0,0,0-.42-.32,1.25,1.25,0,0,0-.54-.12,1.15,1.15,0,0,0-.8.3,1.41,1.41,0,0,0-.38.66Z"/><path class="cls-1" d="M218.66,42.73h.41v.46a1.38,1.38,0,0,1,.4-.4.79.79,0,0,1,.44-.14.78.78,0,0,1,.36.11l-.21.34a.74.74,0,0,0-.22-.05.62.62,0,0,0-.4.17,1,1,0,0,0-.29.52,5,5,0,0,0-.08,1.1v1.08h-.41Z"/><polygon class="cls-1" points="266.7 66.54 260.58 66.54 260.58 65.79 266.46 65.79 267.89 64.79 258.1 64.79 264.6 60.45 267.06 62.37 266.6 62.96 264.57 61.38 260.57 64.04 270.27 64.04 266.7 66.54"/><path class="cls-1" d="M188.27,61.85h.49l1.12,1.8,1.09-1.8h.49l-1.37,2.26v2.06h-.43V64.11Z"/><path class="cls-1" d="M193.07,62.9a1.6,1.6,0,0,1,1.22.53,1.71,1.71,0,0,1,0,2.32,1.7,1.7,0,0,1-2.39,0,1.66,1.66,0,0,1-.46-1.17,1.64,1.64,0,0,1,.43-1.14A1.59,1.59,0,0,1,193.07,62.9Zm0,.4a1.2,1.2,0,0,0-.88.38,1.26,1.26,0,0,0-.36.91,1.29,1.29,0,0,0,.16.64,1.17,1.17,0,0,0,.45.46,1.3,1.3,0,0,0,1.25,0,1.17,1.17,0,0,0,.45-.46,1.29,1.29,0,0,0,.16-.64,1.26,1.26,0,0,0-.36-.91A1.2,1.2,0,0,0,193.07,63.3Z"/><path class="cls-1" d="M198.67,61.74v4.43h-.41v-.55a1.82,1.82,0,0,1-.58.47,1.63,1.63,0,0,1-.7.15,1.56,1.56,0,0,1-1.15-.48,1.66,1.66,0,0,1-.48-1.2,1.61,1.61,0,0,1,.48-1.17A1.56,1.56,0,0,1,197,62.9a1.52,1.52,0,0,1,.71.17,1.65,1.65,0,0,1,.56.5V61.74ZM197,63.3a1.24,1.24,0,0,0-.63.17,1.22,1.22,0,0,0-.46.47,1.3,1.3,0,0,0-.17.64,1.33,1.33,0,0,0,.17.64,1.23,1.23,0,0,0,1.08.65,1.3,1.3,0,0,0,.64-.17,1.13,1.13,0,0,0,.46-.46,1.37,1.37,0,0,0-.2-1.57A1.19,1.19,0,0,0,197,63.3Z"/><path class="cls-1" d="M201.11,62.9a1.6,1.6,0,0,1,1.22.53,1.73,1.73,0,0,1,0,2.32,1.7,1.7,0,0,1-2.39,0,1.67,1.67,0,0,1-.47-1.17,1.65,1.65,0,0,1,.44-1.14A1.59,1.59,0,0,1,201.11,62.9Zm0,.4a1.18,1.18,0,0,0-.87.38,1.26,1.26,0,0,0-.36.91,1.29,1.29,0,0,0,.16.64,1.17,1.17,0,0,0,.45.46,1.3,1.3,0,0,0,1.25,0,1.17,1.17,0,0,0,.45-.46,1.29,1.29,0,0,0,.16-.64,1.26,1.26,0,0,0-.36-.91A1.2,1.2,0,0,0,201.1,63.3Z"/><path class="cls-1" d="M203.55,66.17V61.74H204v1.79a1.67,1.67,0,0,1,.57-.47,1.5,1.5,0,0,1,.7-.16,1.56,1.56,0,0,1,1.16.49,1.67,1.67,0,0,1,.47,1.19,1.63,1.63,0,0,1-.48,1.18,1.59,1.59,0,0,1-1.16.48,1.47,1.47,0,0,1-.7-.16,1.56,1.56,0,0,1-.56-.5v.59Zm1.65-.32a1.24,1.24,0,0,0,1.08-.64,1.33,1.33,0,0,0,.17-.64,1.37,1.37,0,0,0-.17-.65,1.22,1.22,0,0,0-.46-.47,1.14,1.14,0,0,0-.62-.17,1.19,1.19,0,0,0-.63.17,1.16,1.16,0,0,0-.47.46,1.36,1.36,0,0,0-.16.65,1.25,1.25,0,0,0,.37.92A1.21,1.21,0,0,0,205.2,65.85Z"/><path class="cls-1" d="M210.79,63v3.19h-.41v-.55a1.82,1.82,0,0,1-.58.47,1.63,1.63,0,0,1-.7.15,1.59,1.59,0,0,1-1.16-.48,1.69,1.69,0,0,1-.47-1.2,1.61,1.61,0,0,1,.48-1.17,1.56,1.56,0,0,1,1.16-.49,1.52,1.52,0,0,1,.71.17,1.61,1.61,0,0,1,.56.49V63Zm-1.64.32a1.24,1.24,0,0,0-.63.17,1.22,1.22,0,0,0-.46.47,1.2,1.2,0,0,0-.17.64,1.23,1.23,0,0,0,.17.64,1.18,1.18,0,0,0,.46.48,1.23,1.23,0,0,0,.62.17,1.3,1.3,0,0,0,.64-.17,1.13,1.13,0,0,0,.46-.46,1.37,1.37,0,0,0-.2-1.57A1.19,1.19,0,0,0,209.15,63.3Z"/><path class="cls-1" d="M213.32,63.32l-.26.28a.93.93,0,0,0-.65-.32.47.47,0,0,0-.34.13.4.4,0,0,0-.15.31A.44.44,0,0,0,212,64a1.67,1.67,0,0,0,.5.34,1.86,1.86,0,0,1,.62.46.79.79,0,0,1,.16.5.9.9,0,0,1-.27.66,1,1,0,0,1-.69.27,1.21,1.21,0,0,1-.53-.12,1,1,0,0,1-.41-.32l.25-.3a.88.88,0,0,0,.67.35.64.64,0,0,0,.42-.15.52.52,0,0,0,.17-.38.51.51,0,0,0-.11-.31,2,2,0,0,0-.52-.34,1.66,1.66,0,0,1-.59-.44.81.81,0,0,1-.15-.49.79.79,0,0,1,.25-.6.84.84,0,0,1,.62-.24A1.31,1.31,0,0,1,213.32,63.32Z"/><path class="cls-1" d="M214.05,61.74h.41v1.81a1.93,1.93,0,0,1,.55-.49,1.41,1.41,0,0,1,.64-.16,1.17,1.17,0,0,1,.64.18,1.13,1.13,0,0,1,.4.49,2.52,2.52,0,0,1,.13,1v1.64h-.41V64.65a5.13,5.13,0,0,0,0-.74.82.82,0,0,0-.28-.47.79.79,0,0,0-.52-.16,1,1,0,0,0-.66.24,1.15,1.15,0,0,0-.39.61,4.18,4.18,0,0,0-.06.87v1.17h-.41Z"/><path class="cls-1" d="M217.85,61.67a.34.34,0,0,1,.34.34.33.33,0,0,1-.1.24.33.33,0,0,1-.24.1.34.34,0,0,1-.34-.34.33.33,0,0,1,.1-.24A.33.33,0,0,1,217.85,61.67Zm-.2,1.31h.41v3.19h-.41Z"/><path class="cls-1" d="M191.64,68.64l-.33.2a1.46,1.46,0,0,0-2.12-.19,1.29,1.29,0,0,0-.2,1.57,1.17,1.17,0,0,0,.48.48,1.48,1.48,0,0,0,.7.17,1.4,1.4,0,0,0,1.14-.56l.33.21a1.55,1.55,0,0,1-.62.54,2.07,2.07,0,0,1-.88.18,1.76,1.76,0,0,1-1.25-.47,1.54,1.54,0,0,1-.5-1.17,1.67,1.67,0,0,1,.87-1.48,2,2,0,0,1,.92-.22,1.81,1.81,0,0,1,.61.1,1.56,1.56,0,0,1,.5.25A1.48,1.48,0,0,1,191.64,68.64Z"/><path class="cls-1" d="M195.6,68v3.19h-.42v-.55a1.72,1.72,0,0,1-.58.47,1.6,1.6,0,0,1-.7.15,1.56,1.56,0,0,1-1.15-.48,1.66,1.66,0,0,1-.48-1.2,1.61,1.61,0,0,1,.48-1.17,1.58,1.58,0,0,1,1.17-.49,1.55,1.55,0,0,1,.71.17,1.59,1.59,0,0,1,.55.49V68ZM194,68.3a1.24,1.24,0,0,0-.63.17,1.3,1.3,0,0,0-.63,1.11,1.33,1.33,0,0,0,.17.64,1.21,1.21,0,0,0,.47.48,1.23,1.23,0,0,0,.62.17,1.29,1.29,0,0,0,.63-.17,1.08,1.08,0,0,0,.46-.46,1.29,1.29,0,0,0,.17-.65,1.24,1.24,0,0,0-.37-.92A1.19,1.19,0,0,0,194,68.3Z"/><path class="cls-1" d="M196.52,68h.41v.55a1.72,1.72,0,0,1,.44-.45,1.28,1.28,0,0,1,.65-.18,1.08,1.08,0,0,1,.44.09,1,1,0,0,1,.34.24,1.2,1.2,0,0,1,.23.44,1.58,1.58,0,0,1,.51-.57,1.19,1.19,0,0,1,.66-.2,1,1,0,0,1,.58.17.94.94,0,0,1,.37.46,2.56,2.56,0,0,1,.12.9v1.74h-.41V69.43a2.2,2.2,0,0,0-.07-.7.59.59,0,0,0-.25-.31.74.74,0,0,0-.42-.12.88.88,0,0,0-.54.18.91.91,0,0,0-.36.46,2.85,2.85,0,0,0-.12,1v1.25h-.41V69.54a2.78,2.78,0,0,0-.07-.79.73.73,0,0,0-.25-.33.75.75,0,0,0-.43-.12,1,1,0,0,0-.53.17,1,1,0,0,0-.36.46,2.46,2.46,0,0,0-.12.89v1.35h-.41Z"/><path class="cls-1" d="M204.83,70.11l.35.18a2.11,2.11,0,0,1-.4.54,1.61,1.61,0,0,1-.5.31,1.74,1.74,0,0,1-.63.1,1.5,1.5,0,0,1-1.21-.51,1.68,1.68,0,0,1-.44-1.15,1.7,1.7,0,0,1,.37-1.08,1.51,1.51,0,0,1,1.26-.6,1.57,1.57,0,0,1,1.3.62,1.75,1.75,0,0,1,.36,1.08h-2.87a1.29,1.29,0,0,0,.35.91,1.13,1.13,0,0,0,.85.36,1.28,1.28,0,0,0,.86-.31A1.63,1.63,0,0,0,204.83,70.11Zm0-.86a1.2,1.2,0,0,0-.24-.52,1.11,1.11,0,0,0-.41-.32,1.25,1.25,0,0,0-.54-.12,1.18,1.18,0,0,0-.81.3,1.4,1.4,0,0,0-.37.66Z"/><path class="cls-1" d="M205.9,68h.41v.46a1.27,1.27,0,0,1,.4-.4.76.76,0,0,1,.43-.14.75.75,0,0,1,.36.11l-.21.34a.68.68,0,0,0-.22,0,.59.59,0,0,0-.39.17,1,1,0,0,0-.29.52,5,5,0,0,0-.08,1.1v1.08h-.41Z"/><path class="cls-1" d="M211,68v3.19h-.42v-.55a1.79,1.79,0,0,1-.57.47,1.66,1.66,0,0,1-.7.15,1.57,1.57,0,0,1-1.16-.48,1.66,1.66,0,0,1-.48-1.2,1.61,1.61,0,0,1,.48-1.17,1.61,1.61,0,0,1,1.88-.32,1.59,1.59,0,0,1,.55.49V68Zm-1.65.32a1.24,1.24,0,0,0-.63.17,1.3,1.3,0,0,0-.63,1.11,1.33,1.33,0,0,0,.17.64,1.21,1.21,0,0,0,.47.48,1.23,1.23,0,0,0,.62.17,1.29,1.29,0,0,0,.63-.17,1.16,1.16,0,0,0,.47-.46,1.39,1.39,0,0,0,.16-.65,1.24,1.24,0,0,0-.37-.92A1.17,1.17,0,0,0,209.38,68.3Z"/><path class="cls-1" d="M34.51,123.57l-.33.32a2.53,2.53,0,0,0-.79-.54,2.19,2.19,0,0,0-.84-.18,2,2,0,0,0-1,.25,1.77,1.77,0,0,0-.71.67,1.71,1.71,0,0,0-.26.9,1.78,1.78,0,0,0,.27.93,1.75,1.75,0,0,0,.72.68,2,2,0,0,0,1,.25,1.73,1.73,0,0,0,1.13-.37,1.48,1.48,0,0,0,.55-1H32.91v-.42h1.86a2.19,2.19,0,0,1-.59,1.6,2.16,2.16,0,0,1-1.58.59,2.36,2.36,0,0,1-1.89-.82,2.25,2.25,0,0,1,.61-3.42,2.45,2.45,0,0,1,1.22-.3,2.74,2.74,0,0,1,1,.2A3,3,0,0,1,34.51,123.57Z"/><path class="cls-1" d="M35.46,124h.42v1.49a3,3,0,0,0,.06.74.88.88,0,0,0,.33.47,1.08,1.08,0,0,0,.6.17,1,1,0,0,0,.58-.17.83.83,0,0,0,.33-.43,2.65,2.65,0,0,0,.07-.78V124h.41v1.56a2.5,2.5,0,0,1-.15,1,1.21,1.21,0,0,1-.47.53,1.76,1.76,0,0,1-1.55,0,1.2,1.2,0,0,1-.47-.53,2.61,2.61,0,0,1-.16-1Z"/><path class="cls-1" d="M40.78,124.32l-.27.28a.92.92,0,0,0-.65-.32.48.48,0,0,0-.34.13.39.39,0,0,0-.14.31.48.48,0,0,0,.11.29,1.67,1.67,0,0,0,.5.34,1.76,1.76,0,0,1,.62.46.8.8,0,0,1,.17.5.91.91,0,0,1-.28.66.93.93,0,0,1-.69.27,1.4,1.4,0,0,1-.53-.11,1.2,1.2,0,0,1-.41-.33l.26-.3a.87.87,0,0,0,.66.35.6.6,0,0,0,.42-.15.48.48,0,0,0,.17-.38.45.45,0,0,0-.11-.31,2,2,0,0,0-.52-.34,1.52,1.52,0,0,1-.58-.44.76.76,0,0,1-.16-.49.79.79,0,0,1,.25-.6.85.85,0,0,1,.63-.24A1.33,1.33,0,0,1,40.78,124.32Z"/><path class="cls-1" d="M41.87,122.79h.41V124h.65v.35h-.65v2.84h-.41v-2.84h-.56V124h.56Z"/><path class="cls-1" d="M45,123.9a1.59,1.59,0,0,1,1.22.53,1.69,1.69,0,0,1,.44,1.15,1.66,1.66,0,0,1-.46,1.17,1.71,1.71,0,0,1-2.4,0,1.66,1.66,0,0,1-.46-1.17,1.65,1.65,0,0,1,.44-1.14A1.57,1.57,0,0,1,45,123.9Zm0,.4a1.17,1.17,0,0,0-.87.38,1.23,1.23,0,0,0-.37.91,1.3,1.3,0,0,0,.17.64,1.17,1.17,0,0,0,.45.46,1.28,1.28,0,0,0,1.24,0,1.17,1.17,0,0,0,.45-.46,1.3,1.3,0,0,0,.17-.64,1.23,1.23,0,0,0-.37-.91A1.17,1.17,0,0,0,45,124.3Z"/><path class="cls-1" d="M145.36,80.92V76.6h.89a4.71,4.71,0,0,1,1.41.16,2,2,0,0,1,1,.76,2.35,2.35,0,0,1,.35,1.29,2.25,2.25,0,0,1-.28,1.15,1.8,1.8,0,0,1-.73.72,2.67,2.67,0,0,1-1.25.24Zm.41-.41h.5a4.79,4.79,0,0,0,1.23-.11,1.48,1.48,0,0,0,.77-.57,1.81,1.81,0,0,0,.27-1,1.84,1.84,0,0,0-.3-1.06,1.5,1.5,0,0,0-.84-.61,5.12,5.12,0,0,0-1.33-.12h-.3Z"/><path class="cls-1" d="M151.26,77.65a1.59,1.59,0,0,1,1.22.53,1.64,1.64,0,0,1,.44,1.15,1.66,1.66,0,0,1-.46,1.17,1.7,1.7,0,0,1-2.39,0,1.67,1.67,0,0,1-.47-1.17,1.65,1.65,0,0,1,.44-1.14A1.57,1.57,0,0,1,151.26,77.65Zm0,.4a1.17,1.17,0,0,0-.87.38,1.27,1.27,0,0,0-.37.91,1.3,1.3,0,0,0,.17.64,1.17,1.17,0,0,0,.45.46,1.22,1.22,0,0,0,.62.16,1.17,1.17,0,0,0,.62-.16,1.27,1.27,0,0,0,.46-.46,1.29,1.29,0,0,0,.16-.64,1.23,1.23,0,0,0-.37-.91A1.17,1.17,0,0,0,151.26,78.05Z"/><path class="cls-1" d="M153.69,77.73h.41v.57a1.76,1.76,0,0,1,.54-.49,1.33,1.33,0,0,1,.65-.16,1.11,1.11,0,0,1,.63.18,1.09,1.09,0,0,1,.41.49,2.56,2.56,0,0,1,.13,1v1.64h-.41V79.4a3.68,3.68,0,0,0-.05-.74.75.75,0,0,0-.26-.47.82.82,0,0,0-.53-.16,1,1,0,0,0-.66.24,1.15,1.15,0,0,0-.39.61,4.18,4.18,0,0,0-.06.87v1.17h-.41Z"/><path class="cls-1" d="M161,80.45l.64.81h-.54l-.44-.56a2.14,2.14,0,0,1-1.18.33,2.2,2.2,0,0,1-1.62-.66,2.17,2.17,0,0,1-.66-1.59,2.27,2.27,0,0,1,.3-1.15,2.16,2.16,0,0,1,.83-.84,2.21,2.21,0,0,1,1.14-.3,2.25,2.25,0,0,1,2.27,2.27,2.24,2.24,0,0,1-.18.91A2.41,2.41,0,0,1,161,80.45Zm-.27-.34a1.81,1.81,0,0,0,.57-1.35,1.84,1.84,0,0,0-.24-.93,1.73,1.73,0,0,0-.68-.66,1.76,1.76,0,0,0-.91-.25,1.82,1.82,0,0,0-.91.24,1.75,1.75,0,0,0-.67.68,1.85,1.85,0,0,0-.24.94,1.81,1.81,0,0,0,1.81,1.82,1.84,1.84,0,0,0,.93-.24l-1-1.22H160Z"/><path class="cls-1" d="M162.51,77.73h.41v1.49A3,3,0,0,0,163,80a.9.9,0,0,0,.34.47,1.06,1.06,0,0,0,.6.17,1,1,0,0,0,.58-.17.83.83,0,0,0,.33-.43,3.22,3.22,0,0,0,.06-.78V77.73h.42v1.56a2.31,2.31,0,0,1-.16,1,1.13,1.13,0,0,1-.46.53,1.78,1.78,0,0,1-1.56,0,1.18,1.18,0,0,1-.46-.53,2.46,2.46,0,0,1-.16-1Z"/><path class="cls-1" d="M166.36,76.42a.3.3,0,0,1,.24.1.3.3,0,0,1,.11.24.34.34,0,0,1-.11.24.33.33,0,0,1-.24.1.34.34,0,0,1-.33-.34.3.3,0,0,1,.1-.24A.29.29,0,0,1,166.36,76.42Zm-.2,1.31h.41v3.19h-.41Z"/><path class="cls-1" d="M167.37,77.73h.41v3.66a1,1,0,0,1-.14.59.49.49,0,0,1-.4.18,1.28,1.28,0,0,1-.47-.1V81.7a.61.61,0,0,0,.3.08.28.28,0,0,0,.25-.13.93.93,0,0,0,.05-.37Zm.2-1.31a.33.33,0,0,1,.24.1.33.33,0,0,1,.1.24.34.34,0,0,1-.34.34.33.33,0,0,1-.24-.1.33.33,0,0,1-.1-.24.34.34,0,0,1,.34-.34Z"/><path class="cls-1" d="M170.15,77.65a1.6,1.6,0,0,1,1.22.53,1.73,1.73,0,0,1,0,2.32,1.7,1.7,0,0,1-2.39,0,1.67,1.67,0,0,1-.47-1.17,1.65,1.65,0,0,1,.44-1.14A1.59,1.59,0,0,1,170.15,77.65Zm0,.4a1.18,1.18,0,0,0-.87.38,1.26,1.26,0,0,0-.36.91,1.29,1.29,0,0,0,.16.64,1.17,1.17,0,0,0,.45.46,1.3,1.3,0,0,0,1.25,0,1.17,1.17,0,0,0,.45-.46,1.29,1.29,0,0,0,.16-.64,1.26,1.26,0,0,0-.36-.91A1.2,1.2,0,0,0,170.14,78.05Z"/><path class="cls-1" d="M172.94,76.54h.41v1.19H174v.35h-.65v2.84h-.41V78.08h-.57v-.35h.57Z"/><path class="cls-1" d="M177.28,79.86l.35.18a2.11,2.11,0,0,1-.4.54,1.51,1.51,0,0,1-.5.31,1.74,1.74,0,0,1-.63.1,1.5,1.5,0,0,1-1.21-.51,1.68,1.68,0,0,1-.44-1.15,1.7,1.7,0,0,1,.37-1.08,1.51,1.51,0,0,1,1.26-.6,1.56,1.56,0,0,1,1.3.62,1.75,1.75,0,0,1,.36,1.08h-2.87a1.29,1.29,0,0,0,.35.91,1.13,1.13,0,0,0,.85.36,1.28,1.28,0,0,0,.86-.31A1.63,1.63,0,0,0,177.28,79.86Zm0-.86a1.2,1.2,0,0,0-.24-.52,1.11,1.11,0,0,0-.41-.32,1.25,1.25,0,0,0-.54-.12,1.18,1.18,0,0,0-.81.3,1.4,1.4,0,0,0-.37.66Z"/><path class="cls-1" d="M115.17,105.17l.6-4.32h.09l1.75,3.54,1.74-3.54h.07l.61,4.32h-.42l-.42-3.09-1.53,3.09h-.11L116,102.06l-.42,3.11Z"/><path class="cls-1" d="M123.9,102.64l-.32.2a1.36,1.36,0,0,0-1.15-.56,1.32,1.32,0,0,0-1,.37,1.23,1.23,0,0,0-.39.91,1.26,1.26,0,0,0,.18.66,1.19,1.19,0,0,0,.49.48,1.47,1.47,0,0,0,1.84-.39l.32.21a1.59,1.59,0,0,1-.61.54,2.07,2.07,0,0,1-.88.18,1.77,1.77,0,0,1-1.26-.47,1.57,1.57,0,0,1-.5-1.17,1.73,1.73,0,0,1,.23-.86,1.69,1.69,0,0,1,.65-.62,1.94,1.94,0,0,1,.91-.22,1.81,1.81,0,0,1,.61.1,1.38,1.38,0,0,1,.5.25A1.2,1.2,0,0,1,123.9,102.64Z"/><path class="cls-1" d="M124.75,105.17v-4.32h.9a4.63,4.63,0,0,1,1.4.16,1.87,1.87,0,0,1,1,.76,2.53,2.53,0,0,1,.07,2.44,1.72,1.72,0,0,1-.72.72,2.71,2.71,0,0,1-1.26.24Zm.42-.41h.49a4.82,4.82,0,0,0,1.24-.11,1.46,1.46,0,0,0,.76-.57,1.74,1.74,0,0,0,.28-1,1.84,1.84,0,0,0-.3-1.06,1.5,1.5,0,0,0-.84-.61,5.17,5.17,0,0,0-1.33-.12h-.3Z"/><path class="cls-1" d="M130.66,101.9a1.59,1.59,0,0,1,1.22.53,1.71,1.71,0,0,1,0,2.32,1.55,1.55,0,0,1-1.19.49,1.57,1.57,0,0,1-1.2-.49,1.66,1.66,0,0,1-.46-1.17,1.6,1.6,0,0,1,.44-1.14A1.57,1.57,0,0,1,130.66,101.9Zm0,.4a1.17,1.17,0,0,0-.87.38,1.23,1.23,0,0,0-.37.91,1.3,1.3,0,0,0,.17.64,1.17,1.17,0,0,0,.45.46,1.19,1.19,0,0,0,.62.16,1.22,1.22,0,0,0,.62-.16,1.17,1.17,0,0,0,.45-.46,1.3,1.3,0,0,0,.17-.64,1.27,1.27,0,0,0-.37-.91A1.17,1.17,0,0,0,130.66,102.3Z"/><path class="cls-1" d="M133.08,102h.42v.57a1.65,1.65,0,0,1,.54-.49,1.31,1.31,0,0,1,.65-.16,1.1,1.1,0,0,1,1,.67,2.78,2.78,0,0,1,.13,1v1.64h-.42v-1.52a4,4,0,0,0,0-.74.76.76,0,0,0-.27-.47.79.79,0,0,0-.52-.16,1,1,0,0,0-.67.24,1.2,1.2,0,0,0-.38.61,4.18,4.18,0,0,0-.06.87v1.17h-.42Z"/><path class="cls-1" d="M139.91,102v3.19h-.41v-.55a1.72,1.72,0,0,1-.58.47,1.63,1.63,0,0,1-.7.15,1.59,1.59,0,0,1-1.16-.48,1.69,1.69,0,0,1-.47-1.2,1.61,1.61,0,0,1,.48-1.17,1.56,1.56,0,0,1,1.16-.49,1.52,1.52,0,0,1,.71.17,1.61,1.61,0,0,1,.56.49V102Zm-1.64.32a1.24,1.24,0,0,0-.63.17,1.22,1.22,0,0,0-.46.47,1.2,1.2,0,0,0-.17.64,1.33,1.33,0,0,0,.17.64,1.18,1.18,0,0,0,.46.48,1.26,1.26,0,0,0,.62.17,1.3,1.3,0,0,0,.64-.17,1.13,1.13,0,0,0,.46-.46,1.37,1.37,0,0,0-.2-1.57A1.19,1.19,0,0,0,138.27,102.3Z"/><path class="cls-1" d="M140.78,100.74h.41v4.43h-.41Z"/><path class="cls-1" d="M145.22,100.74v4.43h-.41v-.55a1.82,1.82,0,0,1-.58.47,1.63,1.63,0,0,1-.7.15,1.56,1.56,0,0,1-1.15-.48,1.66,1.66,0,0,1-.48-1.2,1.61,1.61,0,0,1,.48-1.17,1.56,1.56,0,0,1,1.16-.49,1.52,1.52,0,0,1,.71.17,1.65,1.65,0,0,1,.56.5v-1.83Zm-1.64,1.56a1.24,1.24,0,0,0-.63.17,1.3,1.3,0,0,0-.63,1.11,1.24,1.24,0,0,0,.18.64,1.12,1.12,0,0,0,.46.48,1.2,1.2,0,0,0,.62.17,1.29,1.29,0,0,0,.63-.17,1.13,1.13,0,0,0,.46-.46,1.37,1.37,0,0,0-.2-1.57A1.19,1.19,0,0,0,143.58,102.3Z"/><path class="cls-1" d="M146.72,102.35l-.23-.12a1.71,1.71,0,0,0,.15-.35,1.39,1.39,0,0,0,.06-.33h-.26v-.81H147v.51a2.34,2.34,0,0,1-.05.59A2,2,0,0,1,146.72,102.35Z"/><path class="cls-1" d="M149.86,102.32l-.26.28a.93.93,0,0,0-.65-.32.47.47,0,0,0-.34.13.4.4,0,0,0-.15.31.44.44,0,0,0,.12.29,1.59,1.59,0,0,0,.49.34,1.82,1.82,0,0,1,.63.46.79.79,0,0,1,.16.5.9.9,0,0,1-.27.66,1,1,0,0,1-.69.27,1.36,1.36,0,0,1-.53-.11,1.14,1.14,0,0,1-.42-.33l.26-.3a.88.88,0,0,0,.67.35.64.64,0,0,0,.42-.15.52.52,0,0,0,.17-.38.47.47,0,0,0-.12-.31,1.72,1.72,0,0,0-.51-.34,1.57,1.57,0,0,1-.59-.44.84.84,0,0,1,.09-1.09.88.88,0,0,1,.63-.24A1.31,1.31,0,0,1,149.86,102.32Z"/><path class="cls-1" d="M63.11,100.75v.39a.93.93,0,0,0-.38-.1.39.39,0,0,0-.2,0,.26.26,0,0,0-.1.11,2,2,0,0,0,0,.34V102h.66v.35h-.66v2.84H62v-2.84h-.42V102H62v-.5a1.42,1.42,0,0,1,.06-.49.43.43,0,0,1,.21-.23.69.69,0,0,1,.36-.09A1.59,1.59,0,0,1,63.11,100.75Z"/><path class="cls-1" d="M66.85,102v3.19h-.41v-.55a1.94,1.94,0,0,1-.58.47,1.66,1.66,0,0,1-.7.15,1.57,1.57,0,0,1-1.16-.48,1.66,1.66,0,0,1-.48-1.2,1.61,1.61,0,0,1,.48-1.17,1.58,1.58,0,0,1,1.17-.49,1.52,1.52,0,0,1,.71.17,1.61,1.61,0,0,1,.56.49V102Zm-1.65.32a1.28,1.28,0,0,0-1.26,1.28,1.24,1.24,0,0,0,.18.64,1.12,1.12,0,0,0,.46.48,1.23,1.23,0,0,0,.62.17,1.36,1.36,0,0,0,.64-.17,1.13,1.13,0,0,0,.46-.46,1.37,1.37,0,0,0-.2-1.57A1.21,1.21,0,0,0,65.2,102.3Z"/><path class="cls-1" d="M67.77,102h.41v.55a1.89,1.89,0,0,1,.44-.45,1.31,1.31,0,0,1,.66-.18,1,1,0,0,1,.43.09.87.87,0,0,1,.34.24,1.2,1.2,0,0,1,.23.44,1.58,1.58,0,0,1,.51-.57,1.22,1.22,0,0,1,.66-.2,1,1,0,0,1,.58.17.94.94,0,0,1,.37.46,2.31,2.31,0,0,1,.13.9v1.74h-.42v-1.74a2.2,2.2,0,0,0-.07-.7.59.59,0,0,0-.25-.31.74.74,0,0,0-.42-.12.88.88,0,0,0-.54.18.91.91,0,0,0-.36.46,2.85,2.85,0,0,0-.12,1v1.25h-.41v-1.63a2.78,2.78,0,0,0-.07-.79.73.73,0,0,0-.25-.33.74.74,0,0,0-.42-.12.93.93,0,0,0-.53.17,1,1,0,0,0-.37.46,2.46,2.46,0,0,0-.12.89v1.35h-.41Z"/><path class="cls-1" d="M73.55,100.67a.33.33,0,0,1,.24.1.3.3,0,0,1,.1.24.33.33,0,0,1-.1.24.34.34,0,0,1-.48,0,.33.33,0,0,1-.1-.24.3.3,0,0,1,.1-.24A.33.33,0,0,1,73.55,100.67ZM73.34,102h.42v3.19h-.42Z"/><path class="cls-1" d="M74.54,100.74H75v4.43h-.42Z"/><path class="cls-1" d="M75.46,102h.43L77,104.44,78.07,102h.42l-1.89,4.35h-.43l.62-1.41Z"/><path class="cls-1" d="M79,102h.41v.55a1.72,1.72,0,0,1,.44-.45,1.28,1.28,0,0,1,.65-.18A1.08,1.08,0,0,1,81,102a1,1,0,0,1,.34.24,1.2,1.2,0,0,1,.23.44,1.58,1.58,0,0,1,.51-.57,1.19,1.19,0,0,1,.66-.2,1,1,0,0,1,.58.17.94.94,0,0,1,.37.46,2.56,2.56,0,0,1,.12.9v1.74h-.41v-1.74a2.2,2.2,0,0,0-.07-.7.59.59,0,0,0-.25-.31.74.74,0,0,0-.42-.12.93.93,0,0,0-.55.18,1,1,0,0,0-.36.46,3.19,3.19,0,0,0-.11,1v1.25h-.41v-1.63a3.22,3.22,0,0,0-.07-.79.81.81,0,0,0-.25-.33.75.75,0,0,0-.43-.12,1,1,0,0,0-.53.17,1,1,0,0,0-.36.46,2.46,2.46,0,0,0-.12.89v1.35H79Z"/><path class="cls-1" d="M87.82,102v3.19h-.41v-.55a1.82,1.82,0,0,1-.58.47,1.63,1.63,0,0,1-.7.15,1.59,1.59,0,0,1-1.16-.48,1.65,1.65,0,0,1-.47-1.2,1.61,1.61,0,0,1,.48-1.17,1.56,1.56,0,0,1,1.16-.49,1.52,1.52,0,0,1,.71.17,1.61,1.61,0,0,1,.56.49V102Zm-1.64.32a1.24,1.24,0,0,0-.63.17,1.16,1.16,0,0,0-.46.47,1.2,1.2,0,0,0-.17.64,1.23,1.23,0,0,0,.17.64,1.18,1.18,0,0,0,.46.48,1.23,1.23,0,0,0,.62.17,1.3,1.3,0,0,0,.64-.17,1.13,1.13,0,0,0,.46-.46,1.37,1.37,0,0,0-.2-1.57A1.19,1.19,0,0,0,86.18,102.3Z"/><path class="cls-1" d="M88.59,102H89v.46a1.36,1.36,0,0,1,.39-.4.82.82,0,0,1,.44-.14.78.78,0,0,1,.36.11l-.21.34a.74.74,0,0,0-.22,0,.57.57,0,0,0-.39.17,1,1,0,0,0-.3.52,5.19,5.19,0,0,0-.07,1.1v1.08h-.42Z"/><path class="cls-1" d="M90.92,100.79h.42V102H92v.35h-.64v2.84h-.42v-2.84h-.56V102h.56Z"/><path class="cls-1" d="M252.61,69.6H253v1.63l1.73-1.63h.57l-2.07,1.94,2.24,2.38h-.58l-1.89-2v2h-.43Z"/><path class="cls-1" d="M258.77,72.86l.34.18a1.88,1.88,0,0,1-.39.54,1.61,1.61,0,0,1-.5.31,1.81,1.81,0,0,1-.63.1,1.53,1.53,0,0,1-1.22-.51,1.72,1.72,0,0,1-.44-1.15,1.76,1.76,0,0,1,.37-1.08,1.54,1.54,0,0,1,1.27-.6,1.57,1.57,0,0,1,1.3.62,1.69,1.69,0,0,1,.35,1.08h-2.87a1.29,1.29,0,0,0,.36.91,1.12,1.12,0,0,0,.84.36,1.56,1.56,0,0,0,.48-.08,1.49,1.49,0,0,0,.39-.23A1.85,1.85,0,0,0,258.77,72.86Zm0-.86a1.48,1.48,0,0,0-.24-.52,1.19,1.19,0,0,0-.41-.32,1.33,1.33,0,0,0-.55-.12,1.15,1.15,0,0,0-.8.3,1.32,1.32,0,0,0-.37.66Z"/><path class="cls-1" d="M260.13,69.42a.34.34,0,0,1,.34.34.33.33,0,0,1-.1.24.33.33,0,0,1-.24.1.34.34,0,0,1-.34-.34.33.33,0,0,1,.1-.24A.33.33,0,0,1,260.13,69.42Zm-.2,1.31h.41v3.19h-.41Z"/><path class="cls-1" d="M262.69,70.65a1.59,1.59,0,0,1,1.22.53,1.64,1.64,0,0,1,.44,1.15,1.66,1.66,0,0,1-.46,1.17,1.7,1.7,0,0,1-2.39,0,1.67,1.67,0,0,1-.47-1.17,1.65,1.65,0,0,1,.44-1.14A1.57,1.57,0,0,1,262.69,70.65Zm0,.4a1.17,1.17,0,0,0-.87.38,1.26,1.26,0,0,0-.36.91,1.29,1.29,0,0,0,.16.64,1.17,1.17,0,0,0,.45.46,1.21,1.21,0,0,0,1.69-.46,1.2,1.2,0,0,0,.17-.64,1.26,1.26,0,0,0-.36-.91A1.2,1.2,0,0,0,262.69,71.05Z"/><path class="cls-1" d="M266.83,69.6h.43v1.82h2.21V69.6h.43v4.32h-.43V71.84h-2.21v2.08h-.43Z"/><path class="cls-1" d="M274.05,70.73v3.19h-.41v-.55a1.94,1.94,0,0,1-.58.47,1.66,1.66,0,0,1-.7.15,1.59,1.59,0,0,1-1.16-.48,1.66,1.66,0,0,1-.48-1.2,1.58,1.58,0,0,1,.49-1.17,1.56,1.56,0,0,1,1.16-.49,1.52,1.52,0,0,1,.71.17,1.61,1.61,0,0,1,.56.49v-.58Zm-1.65.32a1.27,1.27,0,0,0-.63.17,1.3,1.3,0,0,0-.63,1.11,1.24,1.24,0,0,0,.18.64,1.12,1.12,0,0,0,.46.48,1.23,1.23,0,0,0,.62.17,1.33,1.33,0,0,0,.64-.17,1.13,1.13,0,0,0,.46-.46,1.37,1.37,0,0,0-.2-1.57A1.21,1.21,0,0,0,272.4,71.05Z"/><path class="cls-1" d="M278.07,71.39l-.32.2a1.37,1.37,0,0,0-1.16-.56,1.31,1.31,0,0,0-1,.37,1.23,1.23,0,0,0-.39.91,1.26,1.26,0,0,0,.18.66,1.19,1.19,0,0,0,.49.48,1.47,1.47,0,0,0,1.84-.39l.32.21a1.59,1.59,0,0,1-.61.54,2.07,2.07,0,0,1-.88.18,1.77,1.77,0,0,1-1.26-.47,1.57,1.57,0,0,1-.5-1.17,1.73,1.73,0,0,1,.23-.86,1.69,1.69,0,0,1,.65-.62,1.94,1.94,0,0,1,.91-.22,1.81,1.81,0,0,1,.61.1,1.47,1.47,0,0,1,.5.25A1.32,1.32,0,0,1,278.07,71.39Z"/><path class="cls-1" d="M278.86,69.49h.41V71.3a1.93,1.93,0,0,1,.55-.49,1.41,1.41,0,0,1,.64-.16,1.11,1.11,0,0,1,.63.18,1.09,1.09,0,0,1,.41.49,2.52,2.52,0,0,1,.13,1v1.64h-.41V72.4a3.68,3.68,0,0,0-.05-.74.81.81,0,0,0-.27-.47.79.79,0,0,0-.52-.16,1,1,0,0,0-.66.24,1.15,1.15,0,0,0-.39.61,4.18,4.18,0,0,0-.06.87v1.17h-.41Z"/><path class="cls-1" d="M282.66,69.42a.31.31,0,0,1,.24.1.3.3,0,0,1,.1.24.33.33,0,0,1-.1.24.35.35,0,0,1-.24.1.34.34,0,0,1-.34-.34.33.33,0,0,1,.1-.24A.33.33,0,0,1,282.66,69.42Zm-.2,1.31h.41v3.19h-.41Z"/><path class="cls-1" d="M285.22,70.65a1.59,1.59,0,0,1,1.22.53,1.64,1.64,0,0,1,.44,1.15,1.66,1.66,0,0,1-.46,1.17,1.7,1.7,0,0,1-2.39,0,1.67,1.67,0,0,1-.47-1.17,1.65,1.65,0,0,1,.44-1.14A1.57,1.57,0,0,1,285.22,70.65Zm0,.4a1.17,1.17,0,0,0-.87.38,1.27,1.27,0,0,0-.37.91,1.3,1.3,0,0,0,.17.64,1.17,1.17,0,0,0,.45.46,1.22,1.22,0,0,0,.62.16,1.2,1.2,0,0,0,1.07-.62,1.2,1.2,0,0,0,.17-.64,1.23,1.23,0,0,0-.37-.91A1.17,1.17,0,0,0,285.22,71.05Z"/><path class="cls-1" d="M287.59,70.73H288v3.66a1,1,0,0,1-.15.59.47.47,0,0,1-.39.18,1.24,1.24,0,0,1-.47-.1V74.7a.61.61,0,0,0,.29.08.26.26,0,0,0,.25-.13.78.78,0,0,0,0-.37Zm.2-1.31a.34.34,0,0,1,.34.34.33.33,0,0,1-.1.24.33.33,0,0,1-.24.1.34.34,0,0,1-.34-.34.33.33,0,0,1,.1-.24A.33.33,0,0,1,287.79,69.42Z"/><path class="cls-1" d="M289,69.42a.33.33,0,0,1,.24.1.3.3,0,0,1,.1.24.33.33,0,0,1-.1.24.34.34,0,0,1-.48,0,.33.33,0,0,1-.1-.24.3.3,0,0,1,.1-.24A.33.33,0,0,1,289,69.42Zm-.21,1.31h.42v3.19h-.42Z"/><path class="cls-1" d="M291.35,73.11l.36-.22c.26.48.56.71.89.71a.83.83,0,0,0,.41-.1.63.63,0,0,0,.29-.27.65.65,0,0,0,.1-.36.7.7,0,0,0-.15-.42,3.29,3.29,0,0,0-.73-.7,3.5,3.5,0,0,1-.67-.58,1.13,1.13,0,0,1-.23-.66,1,1,0,0,1,.13-.52,1,1,0,0,1,.38-.36,1.11,1.11,0,0,1,.54-.14,1.17,1.17,0,0,1,.57.16,2,2,0,0,1,.56.55l-.35.27A1.7,1.7,0,0,0,293,70a.69.69,0,0,0-.37-.1.57.57,0,0,0-.43.16.51.51,0,0,0-.17.39.66.66,0,0,0,.06.27,1,1,0,0,0,.22.29c.05,0,.24.2.55.43a2.88,2.88,0,0,1,.77.74,1.16,1.16,0,0,1,.21.64,1.09,1.09,0,0,1-.36.82,1.18,1.18,0,0,1-.86.35,1.32,1.32,0,0,1-.72-.21A2,2,0,0,1,291.35,73.11Z"/><path class="cls-1" d="M295.08,69.54h.42v1.19h.65v.35h-.65v2.84h-.42V71.08h-.56v-.35h.56Z"/><path class="cls-1" d="M299.92,70.73v3.19h-.41v-.55a1.82,1.82,0,0,1-.58.47,1.63,1.63,0,0,1-.7.15,1.59,1.59,0,0,1-1.16-.48,1.66,1.66,0,0,1-.48-1.2,1.58,1.58,0,0,1,.49-1.17,1.56,1.56,0,0,1,1.16-.49,1.52,1.52,0,0,1,.71.17,1.61,1.61,0,0,1,.56.49v-.58Zm-1.65.32a1.23,1.23,0,0,0-.62.17,1.16,1.16,0,0,0-.46.47,1.2,1.2,0,0,0-.17.64,1.23,1.23,0,0,0,.17.64,1.18,1.18,0,0,0,.46.48,1.23,1.23,0,0,0,.62.17,1.3,1.3,0,0,0,.64-.17,1.13,1.13,0,0,0,.46-.46,1.37,1.37,0,0,0-.2-1.57A1.19,1.19,0,0,0,298.27,71.05Z"/><path class="cls-1" d="M301.22,69.54h.41v1.19h.65v.35h-.65v2.84h-.41V71.08h-.57v-.35h.57Z"/><path class="cls-1" d="M303,69.42a.34.34,0,0,1,.35.34.37.37,0,0,1-.1.24.37.37,0,0,1-.25.1.34.34,0,0,1-.33-.34.3.3,0,0,1,.1-.24A.29.29,0,0,1,303,69.42Zm-.2,1.31h.41v3.19h-.41Z"/><path class="cls-1" d="M305.59,70.65a1.59,1.59,0,0,1,1.22.53,1.71,1.71,0,0,1,0,2.32,1.55,1.55,0,0,1-1.19.49,1.57,1.57,0,0,1-1.2-.49,1.66,1.66,0,0,1-.46-1.17,1.6,1.6,0,0,1,.44-1.14A1.57,1.57,0,0,1,305.59,70.65Zm0,.4a1.2,1.2,0,0,0-.88.38,1.26,1.26,0,0,0-.36.91,1.29,1.29,0,0,0,.16.64,1.32,1.32,0,0,0,.45.46,1.3,1.3,0,0,0,1.25,0,1.17,1.17,0,0,0,.45-.46,1.3,1.3,0,0,0,.17-.64,1.27,1.27,0,0,0-.37-.91A1.2,1.2,0,0,0,305.59,71.05Z"/><path class="cls-1" d="M308,70.73h.42v.57a1.65,1.65,0,0,1,.54-.49,1.31,1.31,0,0,1,.65-.16,1.16,1.16,0,0,1,.63.18,1.07,1.07,0,0,1,.4.49,2.52,2.52,0,0,1,.14,1v1.64h-.42V72.4a4,4,0,0,0,0-.74.81.81,0,0,0-.27-.47.8.8,0,0,0-.53-.16,1,1,0,0,0-.66.24,1.21,1.21,0,0,0-.39.61,5.37,5.37,0,0,0-.05.87v1.17H308Z"/><path class="cls-1" d="M206.36,122.6h.43v1.63l1.73-1.63h.57L207,124.54l2.24,2.38h-.58l-1.89-2v2h-.43Z"/><path class="cls-1" d="M212.52,125.86l.34.18a1.88,1.88,0,0,1-.39.54,1.61,1.61,0,0,1-.5.31,1.81,1.81,0,0,1-.63.1,1.53,1.53,0,0,1-1.22-.51,1.71,1.71,0,0,1-.44-1.15,1.76,1.76,0,0,1,.37-1.08,1.54,1.54,0,0,1,1.27-.6,1.57,1.57,0,0,1,1.3.62,1.69,1.69,0,0,1,.35,1.08H210.1a1.29,1.29,0,0,0,.36.91,1.12,1.12,0,0,0,.84.36,1.56,1.56,0,0,0,.48-.08,1.49,1.49,0,0,0,.39-.23A1.85,1.85,0,0,0,212.52,125.86Zm0-.86a1.48,1.48,0,0,0-.24-.52,1.19,1.19,0,0,0-.41-.32,1.33,1.33,0,0,0-.55-.12,1.15,1.15,0,0,0-.8.3,1.32,1.32,0,0,0-.37.66Z"/><path class="cls-1" d="M213.88,122.42a.34.34,0,0,1,.34.34.33.33,0,0,1-.1.24.33.33,0,0,1-.24.1.34.34,0,0,1-.34-.34.33.33,0,0,1,.1-.24A.33.33,0,0,1,213.88,122.42Zm-.2,1.31h.41v3.19h-.41Z"/><path class="cls-1" d="M216.44,123.65a1.59,1.59,0,0,1,1.22.53,1.64,1.64,0,0,1,.44,1.15,1.66,1.66,0,0,1-.46,1.17,1.7,1.7,0,0,1-2.39,0,1.67,1.67,0,0,1-.47-1.17,1.65,1.65,0,0,1,.44-1.14A1.57,1.57,0,0,1,216.44,123.65Zm0,.4a1.17,1.17,0,0,0-.87.38,1.26,1.26,0,0,0-.36.91,1.29,1.29,0,0,0,.16.64,1.17,1.17,0,0,0,.45.46,1.21,1.21,0,0,0,1.69-.46,1.2,1.2,0,0,0,.17-.64,1.26,1.26,0,0,0-.36-.91A1.2,1.2,0,0,0,216.44,124.05Z"/><path class="cls-1" d="M220.59,122.6h.86a5.09,5.09,0,0,1,1,.07,1.14,1.14,0,0,1,.61,1.79,1.12,1.12,0,0,1-.63.38,5.38,5.38,0,0,1-1.1.07H221v2h-.43Zm.43.43v1.46h.73a2,2,0,0,0,.65-.08.66.66,0,0,0,.32-.27.68.68,0,0,0,.12-.4.69.69,0,0,0-.12-.39.63.63,0,0,0-.3-.26,2,2,0,0,0-.64-.07Z"/><path class="cls-1" d="M224,122.49h.41v4.43H224Z"/><path class="cls-1" d="M228.45,123.73v3.19H228v-.55a1.82,1.82,0,0,1-.58.47,1.63,1.63,0,0,1-.7.15,1.59,1.59,0,0,1-1.16-.48,1.65,1.65,0,0,1-.47-1.2,1.61,1.61,0,0,1,.48-1.17,1.56,1.56,0,0,1,1.16-.49,1.52,1.52,0,0,1,.71.17,1.61,1.61,0,0,1,.56.49v-.58Zm-1.64.32a1.24,1.24,0,0,0-.63.17,1.16,1.16,0,0,0-.46.47,1.2,1.2,0,0,0-.17.64,1.23,1.23,0,0,0,.17.64,1.18,1.18,0,0,0,.46.48,1.23,1.23,0,0,0,.62.17,1.3,1.3,0,0,0,.64-.17,1.13,1.13,0,0,0,.46-.46,1.37,1.37,0,0,0-.2-1.57A1.19,1.19,0,0,0,226.81,124.05Z"/><path class="cls-1" d="M229.11,123.73h2.34l-1.82,2.83h1.76v.36h-2.45l1.83-2.84h-1.66Z"/><path class="cls-1" d="M235.1,123.73v3.19h-.41v-.55a1.94,1.94,0,0,1-.58.47,1.66,1.66,0,0,1-.7.15,1.59,1.59,0,0,1-1.16-.48,1.66,1.66,0,0,1-.48-1.2,1.58,1.58,0,0,1,.49-1.17,1.56,1.56,0,0,1,1.16-.49,1.52,1.52,0,0,1,.71.17,1.61,1.61,0,0,1,.56.49v-.58Zm-1.65.32a1.28,1.28,0,0,0-1.26,1.28,1.24,1.24,0,0,0,.18.64,1.12,1.12,0,0,0,.46.48,1.23,1.23,0,0,0,.62.17,1.33,1.33,0,0,0,.64-.17,1.13,1.13,0,0,0,.46-.46,1.37,1.37,0,0,0-.2-1.57A1.21,1.21,0,0,0,233.45,124.05Z"/><path class="cls-1" d="M237.74,122.6h.43v1.82h2.21V122.6h.43v4.32h-.43v-2.08h-2.21v2.08h-.43Z"/><path class="cls-1" d="M243.29,123.65a1.59,1.59,0,0,1,1.22.53,1.69,1.69,0,0,1,.44,1.15,1.66,1.66,0,0,1-.46,1.17,1.71,1.71,0,0,1-2.4,0,1.71,1.71,0,0,1-.46-1.17,1.65,1.65,0,0,1,.44-1.14A1.57,1.57,0,0,1,243.29,123.65Zm0,.4a1.17,1.17,0,0,0-.87.38,1.23,1.23,0,0,0-.37.91,1.3,1.3,0,0,0,.17.64,1.17,1.17,0,0,0,.45.46,1.22,1.22,0,0,0,.62.16,1.19,1.19,0,0,0,.62-.16,1.17,1.17,0,0,0,.45-.46,1.3,1.3,0,0,0,.17-.64,1.23,1.23,0,0,0-.37-.91A1.17,1.17,0,0,0,243.29,124.05Z"/><path class="cls-1" d="M246.08,122.54h.42v1.19h.65v.35h-.65v2.84h-.42v-2.84h-.56v-.35h.56Z"/><path class="cls-1" d="M250.43,125.86l.34.18a1.88,1.88,0,0,1-.39.54,1.61,1.61,0,0,1-.5.31,1.81,1.81,0,0,1-.63.1,1.53,1.53,0,0,1-1.22-.51,1.71,1.71,0,0,1-.44-1.15,1.76,1.76,0,0,1,.37-1.08,1.54,1.54,0,0,1,1.27-.6,1.57,1.57,0,0,1,1.3.62,1.69,1.69,0,0,1,.35,1.08H248a1.29,1.29,0,0,0,.36.91,1.12,1.12,0,0,0,.84.36,1.56,1.56,0,0,0,.48-.08,1.49,1.49,0,0,0,.39-.23A1.85,1.85,0,0,0,250.43,125.86Zm0-.86a1.48,1.48,0,0,0-.24-.52,1.11,1.11,0,0,0-.41-.32,1.33,1.33,0,0,0-.55-.12,1.15,1.15,0,0,0-.8.3,1.32,1.32,0,0,0-.37.66Z"/><path class="cls-1" d="M251.59,122.49H252v4.43h-.41Z"/><path class="cls-2" d="M166.52,145.85H167v2.92a2.89,2.89,0,0,1-.1.93,1,1,0,0,1-.35.42,1.1,1.1,0,0,1-.59.16,1.54,1.54,0,0,1-.51-.1,2.17,2.17,0,0,1-.56-.36l.23-.34a2.75,2.75,0,0,0,.56.33.62.62,0,0,0,.29.07.57.57,0,0,0,.33-.11.63.63,0,0,0,.21-.3,2.75,2.75,0,0,0,.06-.72Z"/><path class="cls-2" d="M168,145.85h.86a5,5,0,0,1,1,.06,1.14,1.14,0,0,1,.63.38,1.07,1.07,0,0,1,.24.71,1.15,1.15,0,0,1-.17.62,1,1,0,0,1-.47.41,2.38,2.38,0,0,1-.85.14l1.55,2h-.53l-1.55-2h-.25v2H168Zm.43.43v1.46h.74a2,2,0,0,0,.64-.08.67.67,0,0,0,.33-.27.75.75,0,0,0,.11-.4.69.69,0,0,0-.12-.39.63.63,0,0,0-.3-.26,2,2,0,0,0-.64-.07Z"/><path class="cls-2" d="M173.29,145.85h.43v1.82h2.21v-1.82h.43v4.32h-.43v-2.08h-2.21v2.08h-.43Z"/><path class="cls-2" d="M180.51,147v3.19h-.42v-.55a1.79,1.79,0,0,1-.57.47,1.67,1.67,0,0,1-.71.15,1.56,1.56,0,0,1-1.15-.48,1.66,1.66,0,0,1-.48-1.2,1.61,1.61,0,0,1,.48-1.17,1.58,1.58,0,0,1,1.17-.49,1.55,1.55,0,0,1,.71.17,1.59,1.59,0,0,1,.55.49V147Zm-1.65.32a1.24,1.24,0,0,0-.63.17,1.3,1.3,0,0,0-.63,1.11,1.33,1.33,0,0,0,.17.64,1.21,1.21,0,0,0,.47.48,1.23,1.23,0,0,0,.62.17,1.29,1.29,0,0,0,.63-.17,1.16,1.16,0,0,0,.47-.46,1.39,1.39,0,0,0,.16-.65,1.24,1.24,0,0,0-.37-.92A1.19,1.19,0,0,0,178.86,147.3Z"/><path class="cls-2" d="M184.53,147.64l-.33.2a1.34,1.34,0,0,0-1.15-.56,1.31,1.31,0,0,0-1,.37,1.23,1.23,0,0,0-.39.91,1.26,1.26,0,0,0,.18.66,1.23,1.23,0,0,0,.48.48,1.48,1.48,0,0,0,.7.17,1.4,1.4,0,0,0,1.14-.56l.33.21a1.55,1.55,0,0,1-.62.54,2,2,0,0,1-.87.18,1.77,1.77,0,0,1-1.26-.47,1.57,1.57,0,0,1-.5-1.17,1.67,1.67,0,0,1,.87-1.48,2,2,0,0,1,.92-.22,1.81,1.81,0,0,1,.61.1,1.47,1.47,0,0,1,.5.25A1.32,1.32,0,0,1,184.53,147.64Z"/><path class="cls-2" d="M185.32,145.74h.41v1.81a1.93,1.93,0,0,1,.55-.49,1.38,1.38,0,0,1,.64-.16,1.11,1.11,0,0,1,.63.18,1.09,1.09,0,0,1,.41.49,2.52,2.52,0,0,1,.13,1v1.64h-.41v-1.52a3.68,3.68,0,0,0-.05-.74.81.81,0,0,0-.27-.47.79.79,0,0,0-.52-.16,1,1,0,0,0-.67.24,1.2,1.2,0,0,0-.38.61,4.18,4.18,0,0,0-.06.87v1.17h-.41Z"/><path class="cls-2" d="M189.12,145.67a.33.33,0,0,1,.24.1.3.3,0,0,1,.1.24.33.33,0,0,1-.1.24.34.34,0,0,1-.48,0,.33.33,0,0,1-.1-.24.3.3,0,0,1,.1-.24A.33.33,0,0,1,189.12,145.67Zm-.21,1.31h.42v3.19h-.42Z"/><path class="cls-2" d="M191.68,146.9a1.59,1.59,0,0,1,1.22.53,1.64,1.64,0,0,1,.44,1.15,1.66,1.66,0,0,1-.46,1.17,1.57,1.57,0,0,1-1.2.49,1.53,1.53,0,0,1-1.19-.49,1.67,1.67,0,0,1-.47-1.17,1.65,1.65,0,0,1,.44-1.14A1.57,1.57,0,0,1,191.68,146.9Zm0,.4a1.17,1.17,0,0,0-.87.38,1.23,1.23,0,0,0-.37.91,1.3,1.3,0,0,0,.17.64,1.17,1.17,0,0,0,.45.46,1.22,1.22,0,0,0,.62.16,1.19,1.19,0,0,0,.62-.16,1.17,1.17,0,0,0,.45-.46,1.3,1.3,0,0,0,.17-.64,1.23,1.23,0,0,0-.37-.91A1.17,1.17,0,0,0,191.68,147.3Z"/><path class="cls-2" d="M194.05,147h.42v3.66a1,1,0,0,1-.15.59.49.49,0,0,1-.4.18,1.24,1.24,0,0,1-.46-.1V151a.61.61,0,0,0,.29.08.27.27,0,0,0,.25-.13.78.78,0,0,0,.05-.37Zm.2-1.31a.34.34,0,0,1,.34.34.33.33,0,0,1-.1.24.33.33,0,0,1-.24.1.37.37,0,0,1-.24-.1.33.33,0,0,1-.1-.24.3.3,0,0,1,.1-.24A.33.33,0,0,1,194.25,145.67Z"/><path class="cls-2" d="M195.47,145.67a.33.33,0,0,1,.24.1.3.3,0,0,1,.1.24.33.33,0,0,1-.1.24.34.34,0,0,1-.48,0,.33.33,0,0,1-.1-.24.3.3,0,0,1,.1-.24A.33.33,0,0,1,195.47,145.67Zm-.21,1.31h.42v3.19h-.42Z"/><path class="cls-2" d="M197.8,149.36l.37-.22c.26.48.56.71.89.71a.83.83,0,0,0,.41-.1.63.63,0,0,0,.29-.27.65.65,0,0,0,.1-.36.7.7,0,0,0-.15-.42,3.29,3.29,0,0,0-.73-.7,3.5,3.5,0,0,1-.67-.58,1.06,1.06,0,0,1-.23-.66,1,1,0,0,1,.13-.52,1,1,0,0,1,.38-.36,1.11,1.11,0,0,1,.54-.14,1.17,1.17,0,0,1,.57.16,2,2,0,0,1,.56.55l-.35.27a1.7,1.7,0,0,0-.42-.43.69.69,0,0,0-.37-.1.57.57,0,0,0-.43.16.51.51,0,0,0-.17.39.66.66,0,0,0,.06.27,1,1,0,0,0,.22.29s.24.2.55.43a2.88,2.88,0,0,1,.77.74,1.16,1.16,0,0,1,.21.64,1.09,1.09,0,0,1-.36.82,1.19,1.19,0,0,1-.86.35,1.29,1.29,0,0,1-.72-.21A2,2,0,0,1,197.8,149.36Z"/><path class="cls-2" d="M201.54,145.79H202V147h.65v.35H202v2.84h-.42v-2.84H201V147h.56Z"/><path class="cls-2" d="M206.38,147v3.19H206v-.55a1.94,1.94,0,0,1-.58.47,1.66,1.66,0,0,1-.7.15,1.59,1.59,0,0,1-1.16-.48,1.66,1.66,0,0,1-.48-1.2,1.58,1.58,0,0,1,.49-1.17,1.56,1.56,0,0,1,1.16-.49,1.52,1.52,0,0,1,.71.17,1.61,1.61,0,0,1,.56.49V147Zm-1.65.32a1.28,1.28,0,0,0-1.26,1.28,1.24,1.24,0,0,0,.18.64,1.18,1.18,0,0,0,.46.48,1.23,1.23,0,0,0,.62.17,1.33,1.33,0,0,0,.64-.17,1.13,1.13,0,0,0,.46-.46,1.37,1.37,0,0,0-.2-1.57A1.21,1.21,0,0,0,204.73,147.3Z"/><path class="cls-2" d="M207.67,145.79h.42V147h.65v.35h-.65v2.84h-.42v-2.84h-.56V147h.56Z"/><path class="cls-2" d="M209.48,145.67a.3.3,0,0,1,.24.1.3.3,0,0,1,.11.24.34.34,0,0,1-.11.24.33.33,0,0,1-.24.1.34.34,0,0,1-.33-.34.3.3,0,0,1,.1-.24A.29.29,0,0,1,209.48,145.67Zm-.2,1.31h.41v3.19h-.41Z"/><path class="cls-2" d="M212.05,146.9a1.6,1.6,0,0,1,1.22.53,1.71,1.71,0,0,1,0,2.32,1.7,1.7,0,0,1-2.39,0,1.66,1.66,0,0,1-.46-1.17,1.6,1.6,0,0,1,.44-1.14A1.55,1.55,0,0,1,212.05,146.9Zm0,.4a1.2,1.2,0,0,0-.88.38,1.26,1.26,0,0,0-.36.91,1.29,1.29,0,0,0,.16.64,1.2,1.2,0,0,0,1.08.62,1.22,1.22,0,0,0,.62-.16,1.17,1.17,0,0,0,.45-.46,1.29,1.29,0,0,0,.16-.64,1.26,1.26,0,0,0-.36-.91A1.2,1.2,0,0,0,212.05,147.3Z"/><path class="cls-2" d="M214.47,147h.41v.57a1.79,1.79,0,0,1,.55-.49,1.29,1.29,0,0,1,.64-.16,1.17,1.17,0,0,1,.64.18,1.07,1.07,0,0,1,.4.49,2.56,2.56,0,0,1,.13,1v1.64h-.41v-1.52a4,4,0,0,0,0-.74.81.81,0,0,0-.27-.47.82.82,0,0,0-.53-.16,1,1,0,0,0-.66.24,1.15,1.15,0,0,0-.39.61,4.18,4.18,0,0,0-.06.87v1.17h-.41Z"/><path class="cls-1" d="M2.66,141h.42v1.19h.64v.35H3.08v2.84H2.66v-2.84H2.1v-.35h.56Z"/><path class="cls-1" d="M5.83,142.15a1.59,1.59,0,0,1,1.22.53,1.69,1.69,0,0,1,.44,1.15A1.66,1.66,0,0,1,7,145a1.57,1.57,0,0,1-1.2.49A1.53,1.53,0,0,1,4.64,145a1.67,1.67,0,0,1-.47-1.17,1.65,1.65,0,0,1,.44-1.14A1.57,1.57,0,0,1,5.83,142.15Zm0,.4a1.17,1.17,0,0,0-.87.38,1.23,1.23,0,0,0-.37.91,1.3,1.3,0,0,0,.17.64,1.17,1.17,0,0,0,.45.46,1.22,1.22,0,0,0,.62.16,1.19,1.19,0,0,0,.62-.16,1.17,1.17,0,0,0,.45-.46,1.3,1.3,0,0,0,.17-.64,1.23,1.23,0,0,0-.37-.91A1.17,1.17,0,0,0,5.83,142.55Z"/><path class="cls-1" d="M9.55,141.53v-.43H11.9v.43h-1v3.89h-.43v-3.89Z"/><path class="cls-1" d="M15.33,142.23v3.19h-.41v-.55a1.82,1.82,0,0,1-.58.47,1.63,1.63,0,0,1-.7.15,1.59,1.59,0,0,1-1.16-.48,1.66,1.66,0,0,1-.48-1.2,1.62,1.62,0,0,1,.49-1.17,1.56,1.56,0,0,1,1.16-.49,1.52,1.52,0,0,1,.71.17,1.61,1.61,0,0,1,.56.49v-.58Zm-1.64.32a1.24,1.24,0,0,0-.63.17,1.16,1.16,0,0,0-.46.47,1.2,1.2,0,0,0-.17.64,1.23,1.23,0,0,0,.17.64,1.18,1.18,0,0,0,.46.48,1.23,1.23,0,0,0,.62.17,1.3,1.3,0,0,0,.64-.17,1.13,1.13,0,0,0,.46-.46,1.37,1.37,0,0,0-.2-1.57A1.19,1.19,0,0,0,13.69,142.55Z"/><path class="cls-1" d="M16.25,141h.42v2.53l1.49-1.29h.59L17,143.75l1.86,1.67h-.58L16.67,144v1.44h-.42Z"/><path class="cls-1" d="M22.44,142.23v3.19H22v-.55a1.82,1.82,0,0,1-.58.47,1.63,1.63,0,0,1-.7.15,1.59,1.59,0,0,1-1.16-.48,1.65,1.65,0,0,1-.47-1.2,1.61,1.61,0,0,1,.48-1.17,1.56,1.56,0,0,1,1.16-.49,1.52,1.52,0,0,1,.71.17,1.61,1.61,0,0,1,.56.49v-.58Zm-1.64.32a1.24,1.24,0,0,0-.63.17,1.16,1.16,0,0,0-.46.47,1.2,1.2,0,0,0-.17.64,1.23,1.23,0,0,0,.17.64,1.18,1.18,0,0,0,.46.48,1.23,1.23,0,0,0,.62.17,1.3,1.3,0,0,0,.64-.17,1.13,1.13,0,0,0,.46-.46,1.37,1.37,0,0,0-.2-1.57A1.19,1.19,0,0,0,20.8,142.55Z"/><path class="cls-1" d="M24.88,142.15a1.57,1.57,0,0,1,1.21.53,1.64,1.64,0,0,1,.44,1.15,1.66,1.66,0,0,1-.46,1.17,1.7,1.7,0,0,1-2.39,0,1.67,1.67,0,0,1-.47-1.17,1.65,1.65,0,0,1,.44-1.14A1.59,1.59,0,0,1,24.88,142.15Zm0,.4a1.18,1.18,0,0,0-.87.38,1.26,1.26,0,0,0-.36.91,1.29,1.29,0,0,0,.16.64,1.17,1.17,0,0,0,.45.46,1.3,1.3,0,0,0,1.25,0,1.17,1.17,0,0,0,.45-.46,1.29,1.29,0,0,0,.16-.64,1.26,1.26,0,0,0-.36-.91A1.2,1.2,0,0,0,24.87,142.55Z"/><path class="cls-1" d="M264.41,141h.42v1.19h.64v.35h-.64v2.84h-.42v-2.84h-.56v-.35h.56Z"/><path class="cls-1" d="M267.58,142.15a1.59,1.59,0,0,1,1.22.53,1.69,1.69,0,0,1,.44,1.15,1.66,1.66,0,0,1-.46,1.17,1.57,1.57,0,0,1-1.2.49,1.53,1.53,0,0,1-1.19-.49,1.67,1.67,0,0,1-.47-1.17,1.65,1.65,0,0,1,.44-1.14A1.57,1.57,0,0,1,267.58,142.15Zm0,.4a1.17,1.17,0,0,0-.87.38,1.23,1.23,0,0,0-.37.91,1.3,1.3,0,0,0,.17.64,1.17,1.17,0,0,0,.45.46,1.22,1.22,0,0,0,.62.16,1.19,1.19,0,0,0,.62-.16,1.17,1.17,0,0,0,.45-.46,1.3,1.3,0,0,0,.17-.64,1.23,1.23,0,0,0-.37-.91A1.17,1.17,0,0,0,267.58,142.55Z"/><path class="cls-1" d="M271.28,144.61l.37-.22c.26.48.56.71.89.71a.83.83,0,0,0,.41-.1.63.63,0,0,0,.29-.27.65.65,0,0,0,.1-.36.7.7,0,0,0-.15-.42,3.29,3.29,0,0,0-.73-.7,3.5,3.5,0,0,1-.67-.58,1.06,1.06,0,0,1-.23-.66,1,1,0,0,1,.13-.52,1,1,0,0,1,.38-.36,1.1,1.1,0,0,1,.53-.14,1.18,1.18,0,0,1,.58.16,2,2,0,0,1,.56.55l-.35.27a1.7,1.7,0,0,0-.42-.43.69.69,0,0,0-.37-.1.57.57,0,0,0-.43.16.51.51,0,0,0-.17.39.66.66,0,0,0,.06.27,1,1,0,0,0,.22.29c.05,0,.24.2.55.43a2.88,2.88,0,0,1,.77.74,1.16,1.16,0,0,1,.21.64,1.09,1.09,0,0,1-.36.82,1.21,1.21,0,0,1-.86.35,1.29,1.29,0,0,1-.72-.21A2,2,0,0,1,271.28,144.61Z"/><path class="cls-1" d="M274.66,141h.41v1.81a1.89,1.89,0,0,1,.54-.49,1.45,1.45,0,0,1,.65-.16,1.11,1.11,0,0,1,.63.18,1.15,1.15,0,0,1,.41.49,2.74,2.74,0,0,1,.13,1v1.64H277V143.9a4,4,0,0,0,0-.74.81.81,0,0,0-.27-.47.82.82,0,0,0-.53-.16,1,1,0,0,0-.66.24,1.2,1.2,0,0,0-.38.61,4.18,4.18,0,0,0-.06.87v1.17h-.41Z"/><path class="cls-1" d="M278.46,140.92a.33.33,0,0,1,.24.1.3.3,0,0,1,.1.24.33.33,0,0,1-.1.24.34.34,0,0,1-.48,0,.33.33,0,0,1-.1-.24.3.3,0,0,1,.1-.24A.33.33,0,0,1,278.46,140.92Zm-.21,1.31h.42v3.19h-.42Z"/><path class="cls-1" d="M279.52,142.23h.41v.57a1.65,1.65,0,0,1,.54-.49,1.33,1.33,0,0,1,.65-.16,1.11,1.11,0,0,1,.63.18,1.15,1.15,0,0,1,.41.49,2.56,2.56,0,0,1,.13,1v1.64h-.41V143.9a3.68,3.68,0,0,0-.05-.74.72.72,0,0,0-.27-.47.79.79,0,0,0-.52-.16,1,1,0,0,0-.66.24,1.15,1.15,0,0,0-.39.61,4.18,4.18,0,0,0-.06.87v1.17h-.41Z"/><path class="cls-1" d="M283.12,142.23h.41v3.66a1,1,0,0,1-.14.59.49.49,0,0,1-.4.18,1.24,1.24,0,0,1-.46-.1v-.36a.58.58,0,0,0,.29.08.27.27,0,0,0,.25-.13.93.93,0,0,0,.05-.37Zm.2-1.31a.33.33,0,0,1,.24.1.3.3,0,0,1,.1.24.33.33,0,0,1-.1.24.37.37,0,0,1-.24.1.33.33,0,0,1-.24-.1.33.33,0,0,1-.1-.24.34.34,0,0,1,.34-.34Z"/><path class="cls-1" d="M284.33,142.23h.42v1.49a3.15,3.15,0,0,0,.05.74.9.9,0,0,0,.34.47,1.06,1.06,0,0,0,.6.17,1,1,0,0,0,.58-.17.83.83,0,0,0,.33-.43,3.22,3.22,0,0,0,.06-.78v-1.49h.42v1.56a2.31,2.31,0,0,1-.16,1,1.13,1.13,0,0,1-.46.53,1.78,1.78,0,0,1-1.56,0,1.18,1.18,0,0,1-.46-.53,2.43,2.43,0,0,1-.16-1Z"/><path class="cls-1" d="M288,141h.42v2.53l1.49-1.29h.59l-1.75,1.52,1.85,1.67h-.58l-1.6-1.44v1.44H288Z"/><path class="cls-1" d="M291,142.23h.41v1.49a3,3,0,0,0,.06.74.85.85,0,0,0,.34.47,1.07,1.07,0,0,0,.59.17,1,1,0,0,0,.59-.17.83.83,0,0,0,.33-.43,3.22,3.22,0,0,0,.06-.78v-1.49h.42v1.56a2.31,2.31,0,0,1-.16,1,1.13,1.13,0,0,1-.46.53,1.78,1.78,0,0,1-1.56,0,1.27,1.27,0,0,1-.47-.53,2.64,2.64,0,0,1-.15-1Z"/><path class="cls-3" d="M15.22,42.59l-.91.81a1.29,1.29,0,0,0-1-.67.56.56,0,0,0-.39.13.35.35,0,0,0-.16.29.53.53,0,0,0,.11.31,8.78,8.78,0,0,0,.91.82c.47.4.75.64.85.74a2.9,2.9,0,0,1,.54.73,1.79,1.79,0,0,1,.15.75,1.73,1.73,0,0,1-.55,1.31,2,2,0,0,1-1.43.51,2.09,2.09,0,0,1-1.2-.34,2.64,2.64,0,0,1-.88-1.06l1-.63c.31.57.67.86,1.07.86a.79.79,0,0,0,.53-.18.55.55,0,0,0,.22-.43A.75.75,0,0,0,14,46.1a5.11,5.11,0,0,0-.72-.67,6.64,6.64,0,0,1-1.37-1.33,1.64,1.64,0,0,1-.31-.93A1.53,1.53,0,0,1,12.08,42a1.79,1.79,0,0,1,1.27-.48,2,2,0,0,1,.92.23A3.21,3.21,0,0,1,15.22,42.59Z"/><path class="cls-3" d="M16.48,41.7h1.25v2.44H19.9V41.7h1.25v6.47H19.9V45.32H17.73v2.85H16.48Z"/><path class="cls-3" d="M27.27,46.12H23.42a1.25,1.25,0,0,0,.44.81,1.4,1.4,0,0,0,.93.3,1.61,1.61,0,0,0,1.15-.47l1,.48A2.35,2.35,0,0,1,26,48a2.68,2.68,0,0,1-1.25.26,2.43,2.43,0,0,1-2.53-2.49A2.55,2.55,0,0,1,23,44a2.37,2.37,0,0,1,1.77-.72,2.46,2.46,0,0,1,1.84.72,2.62,2.62,0,0,1,.71,1.91Zm-1.2-.94a1.15,1.15,0,0,0-.47-.64,1.32,1.32,0,0,0-.81-.25,1.45,1.45,0,0,0-.89.28,1.74,1.74,0,0,0-.44.61Z"/><path class="cls-3" d="M28.37,41.7h1.21V47H31.4v1.19h-3Z"/><path class="cls-3" d="M31.71,41.7h3.57v1.22H34.11v5.25H32.86V42.92H31.71Z"/><path class="cls-3" d="M40.77,46.12H36.92a1.25,1.25,0,0,0,.44.81,1.4,1.4,0,0,0,.93.3,1.61,1.61,0,0,0,1.15-.47l1,.48a2.35,2.35,0,0,1-.91.79,2.68,2.68,0,0,1-1.25.26,2.43,2.43,0,0,1-2.53-2.49,2.55,2.55,0,0,1,.7-1.82,2.37,2.37,0,0,1,1.77-.72,2.46,2.46,0,0,1,1.84.72,2.62,2.62,0,0,1,.71,1.91Zm-1.2-.94a1.15,1.15,0,0,0-.47-.64,1.32,1.32,0,0,0-.81-.25,1.45,1.45,0,0,0-.89.28,1.74,1.74,0,0,0-.44.61Z"/><path class="cls-3" d="M42,41.7h1.31a4.23,4.23,0,0,1,1.52.19,1.64,1.64,0,0,1,.73.63,2,2,0,0,1,.27,1,1.77,1.77,0,0,1-.3,1.06,1.82,1.82,0,0,1-.92.65l1.53,2.89H44.78l-1.45-2.75h-.14v2.75H42Zm1.22,2.53h.39a1.45,1.45,0,0,0,.81-.16.57.57,0,0,0,.23-.51.62.62,0,0,0-.12-.38.66.66,0,0,0-.29-.23,2.54,2.54,0,0,0-.68-.06h-.34Z"/><path class="cls-3" d="M48.46,44.7a3.88,3.88,0,1,0,3.87-3.88A3.88,3.88,0,0,0,48.46,44.7Zm1,0a2.88,2.88,0,1,1,2.87,2.87A2.88,2.88,0,0,1,49.46,44.7Z"/><circle class="cls-3" cx="52.33" cy="44.7" r="1.26"/><path class="cls-1" d="M66,59.83v1.08a2.31,2.31,0,0,1-.11.83.92.92,0,0,1-.35.41,1,1,0,0,1-.56.15,1.22,1.22,0,0,1-.65-.18,1.15,1.15,0,0,1-.45-.5,2,2,0,0,1-.15-.83l-2,1.3V61.6l2-1.3V60l-2-.28v-.43Zm-.41.38L64.11,60v.5a3.63,3.63,0,0,0,0,.72.87.87,0,0,0,.28.46.75.75,0,0,0,.51.17.55.55,0,0,0,.49-.24,1.32,1.32,0,0,0,.12-.67Z"/><path class="cls-1" d="M64.91,64.65a1.47,1.47,0,0,1-.19.75,1.38,1.38,0,0,1-.54.53,1.57,1.57,0,0,1-.79.19,1.9,1.9,0,0,1-.93-.24,1.79,1.79,0,0,1-.66-.65,1.94,1.94,0,0,1-.23-.93,1.42,1.42,0,0,1,1.49-1.47,1.84,1.84,0,0,1,.93.24,1.69,1.69,0,0,1,.68.67A1.79,1.79,0,0,1,64.91,64.65Zm-.39,0a1.38,1.38,0,0,0-.19-.71,1.24,1.24,0,0,0-.52-.52,1.49,1.49,0,0,0-.73-.18A1.08,1.08,0,0,0,62,64.34a1.38,1.38,0,0,0,.18.7,1.39,1.39,0,0,0,.53.49,1.6,1.6,0,0,0,.74.19,1.21,1.21,0,0,0,.58-.14.94.94,0,0,0,.4-.39A1.15,1.15,0,0,0,64.52,64.64Z"/><path class="cls-1" d="M64.83,67.34v.41l-1.33-.19a5.83,5.83,0,0,0-.75-.08.77.77,0,0,0-.57.22.81.81,0,0,0-.23.59.84.84,0,0,0,.18.54.91.91,0,0,0,.45.32,6,6,0,0,0,.66.12l1.59.21v.41l-1.2-.16a6,6,0,0,1-1.23-.24,1.24,1.24,0,0,1-.6-.44,1.31,1.31,0,0,1-.23-.78,1.15,1.15,0,0,1,.34-.86,1.14,1.14,0,0,1,.84-.33,2.88,2.88,0,0,1,.47,0l.28,0h.12Z"/><path class="cls-1" d="M66,71.29v.4l-1.2-.16v.65l-.35,0v-.66l-2.83-.38v-.4l2.83.38v-.55l.35,0v.55Z"/><path class="cls-1" d="M63.16,75.68V72.84a1.2,1.2,0,0,0-.9.3,1,1,0,0,0-.32.81,1.31,1.31,0,0,0,.14.62,1.19,1.19,0,0,0,.39.47l-.24.31a1.72,1.72,0,0,1-.48-.61,1.77,1.77,0,0,1-.18-.8A1.37,1.37,0,0,1,62,72.81a1.63,1.63,0,0,1,1-.38,1.83,1.83,0,0,1,.92.26,1.78,1.78,0,0,1,.68.68,1.83,1.83,0,0,1,.24.92,1.38,1.38,0,0,1-.41,1,1.45,1.45,0,0,1-1,.4Zm.36-.38a1,1,0,0,0,.73-.3,1,1,0,0,0,.27-.73,1.38,1.38,0,0,0-1-1.36Z"/><path class="cls-1" d="M66,79.15v.9l-4.31-.58v-.42l3.9.53V79Z"/><path class="cls-1" d="M66.07,83.25l-.26.31L64.43,82.4a1.12,1.12,0,0,1,.08.37,1.22,1.22,0,0,1-.36.87,1.41,1.41,0,0,1-1.08.45A1.53,1.53,0,0,1,62,83.66a1.37,1.37,0,0,1-.44-1,1.34,1.34,0,0,1,.4-1,1.37,1.37,0,0,1,1-.4,1.65,1.65,0,0,1,.75.17,4.76,4.76,0,0,1,1,.71Zm-1.95-.58a1,1,0,0,0-.33-.73,1.14,1.14,0,0,0-.8-.3,1,1,0,0,0-.74.28.92.92,0,0,0-.29.68,1.08,1.08,0,0,0,1.11,1.06,1.05,1.05,0,0,0,.75-.29A.92.92,0,0,0,64.12,82.67Z"/><path class="cls-1" d="M262.9,10.85H264a2.25,2.25,0,0,1,.82.11.89.89,0,0,1,.41.36,1,1,0,0,1,.15.56,1.25,1.25,0,0,1-.18.65,1.15,1.15,0,0,1-.5.45,1.92,1.92,0,0,1-.83.15l1.3,2h-.49l-1.3-2H263l-.28,2h-.43Zm.37.42-.19,1.44h.49a3.37,3.37,0,0,0,.72-.05.84.84,0,0,0,.46-.28.71.71,0,0,0,.18-.5.52.52,0,0,0-.25-.49,1.32,1.32,0,0,0-.67-.12Z"/><path class="cls-1" d="M267.72,11.9a1.44,1.44,0,0,1,.74.2,1.4,1.4,0,0,1,.54.54,1.67,1.67,0,0,1,.19.78,1.91,1.91,0,0,1-.25.93,1.79,1.79,0,0,1-.65.66,1.81,1.81,0,0,1-.93.23,1.46,1.46,0,0,1-1.06-.41,1.49,1.49,0,0,1-.41-1.07,1.88,1.88,0,0,1,.24-.94,1.85,1.85,0,0,1,1.59-.92Zm0,.39a1.42,1.42,0,0,0-1.23.71,1.52,1.52,0,0,0-.18.73,1.14,1.14,0,0,0,.31.82,1.09,1.09,0,0,0,.81.31,1.37,1.37,0,0,0,.69-.18,1.26,1.26,0,0,0,.49-.53,1.46,1.46,0,0,0,.19-.74,1.21,1.21,0,0,0-.14-.58,1,1,0,0,0-.39-.4A1.12,1.12,0,0,0,267.7,12.29Z"/><path class="cls-1" d="M270.4,12h.42l-.2,1.33c-.05.4-.08.64-.08.75a.79.79,0,0,0,.22.58.81.81,0,0,0,.6.22.88.88,0,0,0,.53-.17.94.94,0,0,0,.32-.46,3.11,3.11,0,0,0,.12-.66l.22-1.59H273l-.16,1.21a8.25,8.25,0,0,1-.24,1.23,1.19,1.19,0,0,1-.45.59,1.24,1.24,0,0,1-.78.23,1.16,1.16,0,0,1-.85-.33,1.15,1.15,0,0,1-.34-.85,4.7,4.7,0,0,1,0-.47l0-.28,0-.12Z"/><path class="cls-1" d="M274.36,10.78h.39l-.16,1.2h.66l-.05.36h-.66l-.38,2.83h-.4l.39-2.83h-.55l0-.36h.54Z"/><path class="cls-1" d="M278.74,13.65H275.9a1.29,1.29,0,0,0,.3.9,1,1,0,0,0,.81.33,1.44,1.44,0,0,0,.62-.14,1.31,1.31,0,0,0,.48-.39l.3.24a1.6,1.6,0,0,1-.6.48,1.84,1.84,0,0,1-.81.17,1.38,1.38,0,0,1-1.13-.46,1.6,1.6,0,0,1-.37-1,1.76,1.76,0,0,1,.25-.91,1.85,1.85,0,0,1,.68-.68,1.74,1.74,0,0,1,.92-.25,1.36,1.36,0,0,1,1,.41,1.45,1.45,0,0,1,.4,1A1.57,1.57,0,0,1,278.74,13.65Zm-.37-.36a1,1,0,0,0-.31-.72,1,1,0,0,0-.73-.28,1.36,1.36,0,0,0-.84.27,1.51,1.51,0,0,0-.52.73Z"/><path class="cls-1" d="M281.7,12.16h-.44a1.62,1.62,0,0,1,.4-1.05,1.34,1.34,0,0,1,1-.37,1.15,1.15,0,0,1,.83.33,1.06,1.06,0,0,1,.33.8,1.47,1.47,0,0,1-.17.66,6.9,6.9,0,0,1-.89,1.1l-1,1.11h1.86l-.05.43h-2.74l1.42-1.58a10,10,0,0,0,1-1.19,1.07,1.07,0,0,0,.16-.54.63.63,0,0,0-.22-.5.75.75,0,0,0-.55-.21.8.8,0,0,0-.61.26A1.15,1.15,0,0,0,281.7,12.16Z"/><path class="cls-1" d="M286.07,10.74a1,1,0,0,1,.83.43,1.9,1.9,0,0,1,.33,1.2A4.44,4.44,0,0,1,287,14a2.36,2.36,0,0,1-.66,1,1.27,1.27,0,0,1-.81.3,1,1,0,0,1-.58-.18,1.17,1.17,0,0,1-.4-.53,2.15,2.15,0,0,1-.16-.91,4.66,4.66,0,0,1,.26-1.62,2.23,2.23,0,0,1,.65-1A1.31,1.31,0,0,1,286.07,10.74Zm0,.41a.87.87,0,0,0-.55.26,1.87,1.87,0,0,0-.49.86,4.61,4.61,0,0,0-.2,1.43,1.48,1.48,0,0,0,.21.88.62.62,0,0,0,.51.29.89.89,0,0,0,.61-.29,2.1,2.1,0,0,0,.46-.83,4.82,4.82,0,0,0,.21-1.44,1.39,1.39,0,0,0-.22-.87A.65.65,0,0,0,286,11.15Z"/><path class="cls-1" d="M160.91,97.85h.43v1.82h2.2V97.85H164v4.32h-.43v-2.08h-2.2v2.08h-.43Z"/><path class="cls-1" d="M168.12,99v3.19h-.41v-.55a1.72,1.72,0,0,1-.58.47,1.63,1.63,0,0,1-.7.15,1.55,1.55,0,0,1-1.15-.48,1.66,1.66,0,0,1-.48-1.2,1.61,1.61,0,0,1,.48-1.17,1.56,1.56,0,0,1,1.16-.49,1.52,1.52,0,0,1,.71.17,1.61,1.61,0,0,1,.56.49V99Zm-1.64.32a1.24,1.24,0,0,0-.63.17,1.22,1.22,0,0,0-.46.47,1.2,1.2,0,0,0-.17.64,1.33,1.33,0,0,0,.17.64,1.18,1.18,0,0,0,.46.48,1.26,1.26,0,0,0,.62.17,1.3,1.3,0,0,0,.64-.17,1.13,1.13,0,0,0,.46-.46,1.37,1.37,0,0,0-.2-1.57A1.19,1.19,0,0,0,166.48,99.3Z"/><path class="cls-1" d="M172.15,99.64l-.33.2a1.46,1.46,0,0,0-2.12-.19,1.25,1.25,0,0,0-.38.91,1.35,1.35,0,0,0,.17.66,1.19,1.19,0,0,0,.49.48,1.47,1.47,0,0,0,.69.17,1.42,1.42,0,0,0,1.15-.56l.33.21a1.62,1.62,0,0,1-.62.54,2.07,2.07,0,0,1-.88.18,1.8,1.8,0,0,1-1.26-.47,1.56,1.56,0,0,1-.49-1.17,1.63,1.63,0,0,1,.23-.86,1.66,1.66,0,0,1,.64-.62,2,2,0,0,1,.91-.22,1.77,1.77,0,0,1,.61.1,1.52,1.52,0,0,1,.51.25A1.48,1.48,0,0,1,172.15,99.64Z"/><path class="cls-1" d="M172.93,97.74h.42v1.81a1.77,1.77,0,0,1,.54-.49,1.45,1.45,0,0,1,.65-.16,1.1,1.1,0,0,1,1,.67,2.74,2.74,0,0,1,.13,1v1.64h-.42v-1.52a4,4,0,0,0,0-.74.76.76,0,0,0-.8-.63,1,1,0,0,0-.66.24,1.2,1.2,0,0,0-.38.61,4.18,4.18,0,0,0-.06.87v1.17h-.42Z"/><path class="cls-1" d="M176.74,97.67a.33.33,0,0,1,.24.1.33.33,0,0,1,.1.24.34.34,0,0,1-.34.34.33.33,0,0,1-.24-.1.33.33,0,0,1-.1-.24.34.34,0,0,1,.34-.34ZM176.53,99h.41v3.19h-.41Z"/><path class="cls-1" d="M179.3,98.9a1.59,1.59,0,0,1,1.22.53,1.71,1.71,0,0,1,0,2.32,1.55,1.55,0,0,1-1.19.49,1.57,1.57,0,0,1-1.2-.49,1.66,1.66,0,0,1-.46-1.17,1.6,1.6,0,0,1,.44-1.14A1.57,1.57,0,0,1,179.3,98.9Zm0,.4a1.2,1.2,0,0,0-.88.38,1.26,1.26,0,0,0-.36.91,1.2,1.2,0,0,0,.17.64,1.22,1.22,0,0,0,.44.46,1.3,1.3,0,0,0,1.25,0,1.17,1.17,0,0,0,.45-.46,1.3,1.3,0,0,0,.17-.64,1.27,1.27,0,0,0-.37-.91A1.2,1.2,0,0,0,179.3,99.3Z"/><path class="cls-1" d="M181.67,99h.41v3.66a1,1,0,0,1-.14.59.49.49,0,0,1-.4.18,1.28,1.28,0,0,1-.47-.1V103a.61.61,0,0,0,.3.08.28.28,0,0,0,.25-.13.93.93,0,0,0,0-.37Zm.2-1.31a.33.33,0,0,1,.24.1.33.33,0,0,1,.1.24.34.34,0,0,1-.34.34.33.33,0,0,1-.24-.1.33.33,0,0,1-.1-.24.34.34,0,0,1,.34-.34Z"/><path class="cls-1" d="M183.08,97.67a.33.33,0,0,1,.25.1.32.32,0,0,1,.09.24.36.36,0,0,1-.09.24.37.37,0,0,1-.25.1.34.34,0,0,1-.33-.34.3.3,0,0,1,.1-.24A.29.29,0,0,1,183.08,97.67Zm-.2,1.31h.41v3.19h-.41Z"/><path class="cls-1" d="M164.23,103.74a2.22,2.22,0,0,1,1.64.66,2.16,2.16,0,0,1,.66,1.61,2.2,2.2,0,0,1-.66,1.61,2.17,2.17,0,0,1-1.6.66,2.2,2.2,0,0,1-1.62-.66A2.17,2.17,0,0,1,162,106a2.27,2.27,0,0,1,.3-1.15,2.26,2.26,0,0,1,1.94-1.14Zm0,.43a1.7,1.7,0,0,0-.9.25,1.73,1.73,0,0,0-.67.67,1.85,1.85,0,0,0-.24.94,1.81,1.81,0,0,0,1.81,1.82,1.84,1.84,0,0,0,.93-.24,1.77,1.77,0,0,0,.67-.66,1.91,1.91,0,0,0,.24-.94,1.84,1.84,0,0,0-.24-.93,1.73,1.73,0,0,0-.68-.66A1.77,1.77,0,0,0,164.25,104.17Z"/><path class="cls-1" d="M170.42,105.64l-.32.2a1.46,1.46,0,0,0-2.12-.19,1.25,1.25,0,0,0-.38.91,1.35,1.35,0,0,0,.17.66,1.19,1.19,0,0,0,.49.48,1.47,1.47,0,0,0,.69.17,1.42,1.42,0,0,0,1.15-.56l.32.21a1.52,1.52,0,0,1-.61.54,2.07,2.07,0,0,1-.88.18,1.8,1.8,0,0,1-1.26-.47,1.57,1.57,0,0,1-.5-1.17,1.71,1.71,0,0,1,.88-1.48,2,2,0,0,1,.91-.22,1.87,1.87,0,0,1,.62.1,1.56,1.56,0,0,1,.5.25A1.29,1.29,0,0,1,170.42,105.64Z"/><path class="cls-1" d="M171.58,103.79H172V105h.64v.35H172v2.84h-.42v-2.84H171V105h.56Z"/><path class="cls-1" d="M174.75,104.9a1.59,1.59,0,0,1,1.22.53,1.69,1.69,0,0,1,.44,1.15,1.66,1.66,0,0,1-.46,1.17,1.71,1.71,0,0,1-2.4,0,1.71,1.71,0,0,1-.46-1.17,1.65,1.65,0,0,1,.44-1.14A1.57,1.57,0,0,1,174.75,104.9Zm0,.4a1.17,1.17,0,0,0-.87.38,1.23,1.23,0,0,0-.37.91,1.3,1.3,0,0,0,.17.64,1.17,1.17,0,0,0,.45.46,1.28,1.28,0,0,0,1.24,0,1.17,1.17,0,0,0,.45-.46,1.3,1.3,0,0,0,.17-.64,1.23,1.23,0,0,0-.37-.91A1.17,1.17,0,0,0,174.75,105.3Z"/><path class="cls-1" d="M177,105h.41v.46a1.38,1.38,0,0,1,.4-.4.71.71,0,0,1,.8,0l-.21.34a.74.74,0,0,0-.22,0,.62.62,0,0,0-.4.17,1,1,0,0,0-.29.52,5,5,0,0,0-.08,1.1v1.08H177Z"/><path class="cls-1" d="M181.63,107.11l.35.18a1.88,1.88,0,0,1-.39.54,1.74,1.74,0,0,1-.5.31,1.81,1.81,0,0,1-.63.1,1.52,1.52,0,0,1-1.22-.51,1.74,1.74,0,0,1-.07-2.23,1.54,1.54,0,0,1,1.27-.6,1.59,1.59,0,0,1,1.3.62,1.69,1.69,0,0,1,.35,1.08h-2.87a1.29,1.29,0,0,0,.36.91,1.1,1.1,0,0,0,.84.36,1.61,1.61,0,0,0,.48-.08,1.49,1.49,0,0,0,.39-.23A1.85,1.85,0,0,0,181.63,107.11Zm0-.86a1.48,1.48,0,0,0-.24-.52,1.14,1.14,0,0,0-.42-.32,1.25,1.25,0,0,0-.54-.12,1.15,1.15,0,0,0-.8.3,1.41,1.41,0,0,0-.38.66Z"/><path class="cls-1" d="M109.13,54l.32.29-1.34,1.15,1.65,1.46,1.34-1.15.32.28-3.31,2.84-.31-.28,1.65-1.42-1.65-1.47-1.65,1.42-.33-.29Z"/><path class="cls-1" d="M112.44,58.32a1.46,1.46,0,0,1,.43.64,1.37,1.37,0,0,1,0,.75,1.68,1.68,0,0,1-.38.72,1.88,1.88,0,0,1-.8.53,1.74,1.74,0,0,1-.93.06,1.88,1.88,0,0,1-.85-.44,1.43,1.43,0,0,1-.11-2.09,1.81,1.81,0,0,1,.81-.54,1.67,1.67,0,0,1,.94-.06A1.72,1.72,0,0,1,112.44,58.32Zm-.27.28a1.38,1.38,0,0,0-.66-.33,1.3,1.3,0,0,0-.73,0,1.62,1.62,0,0,0-.62.43,1.14,1.14,0,0,0-.31.82,1.11,1.11,0,0,0,.39.76,1.41,1.41,0,0,0,.64.33,1.37,1.37,0,0,0,.72-.07,1.45,1.45,0,0,0,.63-.43,1.21,1.21,0,0,0,.29-.53,1,1,0,0,0,0-.55A1.07,1.07,0,0,0,112.17,58.6Z"/><path class="cls-1" d="M115.12,61.28l-.39.1a.8.8,0,0,0-.22-.71.5.5,0,0,0-.36-.13.42.42,0,0,0-.32.12.5.5,0,0,0-.09.25,1.57,1.57,0,0,0,.09.5,2.09,2.09,0,0,1,.1.78.83.83,0,0,1-.23.48.88.88,0,0,1-.65.31,1,1,0,0,1-.72-.29,1.22,1.22,0,0,1-.39-1l.38,0a1,1,0,0,0,.28.83.55.55,0,0,0,.42.15.51.51,0,0,0,.39-.17.55.55,0,0,0,.13-.34,3,3,0,0,0-.1-.57,2,2,0,0,1-.09-.69.63.63,0,0,1,.17-.38.81.81,0,0,1,.6-.28,1,1,0,0,1,.67.26.93.93,0,0,1,.26.37A1.26,1.26,0,0,1,115.12,61.28Z"/><path class="cls-1" d="M116.93,60.76l.3.27-1.32,1.14a1.47,1.47,0,0,1,1.23.32,1.07,1.07,0,0,1,.39.75,1,1,0,0,1-.3.79,4.33,4.33,0,0,1-.52.49l-1.12,1-.3-.27,1.12-1a5,5,0,0,0,.51-.49.76.76,0,0,0,.2-.54.8.8,0,0,0-.27-.51,1.22,1.22,0,0,0-.55-.26,1.19,1.19,0,0,0-.62,0,3.13,3.13,0,0,0-.78.52l-1.05.91-.3-.27Z"/><path class="cls-1" d="M118.64,68.2l-.31-.28.37-.32a1.71,1.71,0,0,1-1.32-.42,1.41,1.41,0,0,1-.51-1,1.44,1.44,0,0,1,.4-1.08,1.87,1.87,0,0,1,2.59-.17,1.44,1.44,0,0,1,.41.59,1.24,1.24,0,0,1,0,.72l.47-.4.31.28Zm-1-1.26a1.49,1.49,0,0,0,.66.34,1.34,1.34,0,0,0,.74-.06,1.6,1.6,0,0,0,.65-.44A1.08,1.08,0,0,0,120,66a1.1,1.1,0,0,0-.4-.77,1.34,1.34,0,0,0-1-.35,1.49,1.49,0,0,0-1,.5,1.16,1.16,0,0,0-.31.82A1.1,1.1,0,0,0,117.66,66.94Z"/><path class="cls-1" d="M122.65,68l-.38.11a.77.77,0,0,0-.23-.71.48.48,0,0,0-.36-.14.39.39,0,0,0-.31.13.37.37,0,0,0-.09.24,1.79,1.79,0,0,0,.08.5,2,2,0,0,1,.11.79.9.9,0,0,1-.23.47.84.84,0,0,1-.65.31,1,1,0,0,1-.72-.28,1.25,1.25,0,0,1-.39-1.06l.37,0a1,1,0,0,0,.29.83.55.55,0,0,0,.42.15.51.51,0,0,0,.39-.17.55.55,0,0,0,.13-.34,2.57,2.57,0,0,0-.11-.57,2.2,2.2,0,0,1-.08-.69.63.63,0,0,1,.17-.38.81.81,0,0,1,.6-.28,1,1,0,0,1,.67.27.93.93,0,0,1,.26.36A1.27,1.27,0,0,1,122.65,68Z"/><path class="cls-1" d="M124.55,71.43l-2.12-1.89a1.26,1.26,0,0,0-.38.87,1.06,1.06,0,0,0,.39.78,1.48,1.48,0,0,0,.56.31,1.3,1.3,0,0,0,.62,0l.06.39a1.7,1.7,0,0,1-.77,0,2,2,0,0,1-.72-.4,1.37,1.37,0,0,1-.53-1.1,1.58,1.58,0,0,1,.41-1,1.79,1.79,0,0,1,.79-.52,2,2,0,0,1,1-.06,1.81,1.81,0,0,1,.85.43,1.35,1.35,0,0,1,.49,1,1.5,1.5,0,0,1-.4,1.06Zm0-.52a1,1,0,0,0-.11-1.44,1.42,1.42,0,0,0-.81-.36,1.39,1.39,0,0,0-.87.21Z"/><path class="cls-1" d="M126.44,70.87l.3.26-.39.33a1.44,1.44,0,0,1,1.23.32,1.08,1.08,0,0,1,.4.76,1.1,1.1,0,0,1-.32.81,6.76,6.76,0,0,1-.5.47l-1.12,1-.3-.27,1.12-1a5.22,5.22,0,0,0,.51-.48.74.74,0,0,0,.2-.53.67.67,0,0,0-.26-.51,1.1,1.1,0,0,0-.56-.28,1.19,1.19,0,0,0-.62,0,3,3,0,0,0-.78.52l-1,.91L124,73Z"/><path class="cls-1" d="M129.1,77.5l-.31-.28.38-.32a1.81,1.81,0,0,1-1.34-.42,1.44,1.44,0,0,1-.51-1,1.42,1.42,0,0,1,.4-1.08,1.85,1.85,0,0,1,2.59-.18,1.51,1.51,0,0,1,.41.59,1.37,1.37,0,0,1,0,.73l1.41-1.21.32.28Zm-1-1.26a1.54,1.54,0,0,0,.66.34,1.35,1.35,0,0,0,.74-.06,1.6,1.6,0,0,0,.65-.44,1.08,1.08,0,0,0,.3-.81,1.12,1.12,0,0,0-.41-.77,1.33,1.33,0,0,0-1-.35,1.41,1.41,0,0,0-1,.5,1.08,1.08,0,0,0-.3.81A1.07,1.07,0,0,0,128.12,76.24Z"/><path class="cls-1" d="M133.38,76.93a1.54,1.54,0,0,1,.43.64,1.4,1.4,0,0,1,0,.76,1.46,1.46,0,0,1-.38.71,1.76,1.76,0,0,1-.79.53,1.65,1.65,0,0,1-.93.06,1.79,1.79,0,0,1-.85-.44,1.4,1.4,0,0,1-.51-1,1.46,1.46,0,0,1,.4-1.08,1.83,1.83,0,0,1,1.75-.6A1.86,1.86,0,0,1,133.38,76.93Zm-.27.28a1.38,1.38,0,0,0-.66-.33,1.29,1.29,0,0,0-.73.05,1.46,1.46,0,0,0-.62.42,1.08,1.08,0,0,0-.31.82,1.06,1.06,0,0,0,.39.77,1.44,1.44,0,0,0,.64.32,1.29,1.29,0,0,0,.72-.06,1.69,1.69,0,0,0,.63-.43,1.24,1.24,0,0,0,.28-.53.9.9,0,0,0,0-.56A1.11,1.11,0,0,0,133.11,77.21Z"/><path class="cls-1" d="M135.06,78.53l.31.27-.31.27a1.19,1.19,0,0,1,.53,0,.87.87,0,0,1,.65.52l-.4.15a.51.51,0,0,0-.14-.21.67.67,0,0,0-.42-.17,1.06,1.06,0,0,0-.54.09A3.7,3.7,0,0,0,134,80l-1,.88-.3-.26Z"/><path class="cls-1" d="M136.47,79.79l.3.26-2.44,2.1-.3-.27Zm1.12-.77a.34.34,0,0,1,.11.23.41.41,0,0,1-.08.24.41.41,0,0,1-.23.11.36.36,0,0,1-.24-.09.31.31,0,0,1,0-.46.3.3,0,0,1,.22-.11A.35.35,0,0,1,137.59,79Z"/><path class="cls-1" d="M183.08,120.17h-6v-6h6Zm-5-1h4v-4h-4Z"/></g></svg>